<svg width="37" height="30" viewBox="0 0 37 30" fill="none" xmlns="http://www.w3.org/2000/svg">
<path d="M32.8687 0H3.16722C1.42082 0 0 1.42082 0 3.16722V13.7246C0 15.471 1.42082 16.8919 3.16722 16.8919H32.8687C34.6151 16.8919 36.036 15.471 36.036 13.7246V3.16722C36.036 1.42082 34.6151 0 32.8687 0V0ZM33.9245 13.7246C33.9245 14.3068 33.4509 14.7804 32.8687 14.7804H3.16722C2.58509 14.7804 2.11148 14.3068 2.11148 13.7246V3.16722C2.11148 2.58509 2.58509 2.11148 3.16722 2.11148H32.8687C33.4509 2.11148 33.9245 2.58509 33.9245 3.16722V13.7246Z" fill="#4F4F4F"/>
<path d="M30.7574 10.5576H5.27889C4.69584 10.5576 4.22314 11.0303 4.22314 11.6134C4.22314 12.1964 4.69584 12.6691 5.27889 12.6691H30.7574C31.3405 12.6691 31.8132 12.1964 31.8132 11.6134C31.8132 11.0303 31.3405 10.5576 30.7574 10.5576Z" fill="#4F4F4F"/>
<path d="M26.5362 8.44644C27.1193 8.44644 27.592 7.97377 27.592 7.3907C27.592 6.80763 27.1193 6.33496 26.5362 6.33496C25.9531 6.33496 25.4805 6.80763 25.4805 7.3907C25.4805 7.97377 25.9531 8.44644 26.5362 8.44644Z" fill="#4F4F4F"/>
<path d="M30.755 8.44644C31.338 8.44644 31.8107 7.97377 31.8107 7.3907C31.8107 6.80763 31.338 6.33496 30.755 6.33496C30.1719 6.33496 29.6992 6.80763 29.6992 7.3907C29.6992 7.97377 30.1719 8.44644 30.755 8.44644Z" fill="#4F4F4F"/>
<path d="M5.82105 29.4489C8.76537 27.9767 10.6276 24.9667 10.6276 21.6717V20.0587C10.6276 19.4756 10.1549 19.0029 9.57189 19.0029C8.98884 19.0029 8.51615 19.4756 8.51615 20.0587V21.6717C8.51615 24.1816 7.12165 26.4379 4.8768 27.5603C4.35526 27.8211 4.1439 28.4553 4.40467 28.9768C4.66544 29.4984 5.29966 29.7096 5.82105 29.4489V29.4489Z" fill="#4F4F4F"/>
<path d="M26.462 19.0029C25.8789 19.0029 25.4062 19.4756 25.4062 20.0587V21.6717C25.4062 24.9638 27.2656 27.9753 30.2128 29.4489C30.7353 29.7102 31.3689 29.4973 31.6292 28.9768C31.89 28.4553 31.6786 27.8212 31.1571 27.5603C28.9122 26.4379 27.5177 24.1815 27.5177 21.6717V20.0587C27.5177 19.4756 27.045 19.0029 26.462 19.0029V19.0029Z" fill="#4F4F4F"/>
<path d="M19.0724 28.5046V20.0587C19.0724 19.4756 18.5997 19.0029 18.0167 19.0029C17.4336 19.0029 16.9609 19.4756 16.9609 20.0587V28.5046C16.9609 29.0876 17.4336 29.5603 18.0167 29.5603C18.5997 29.5603 19.0724 29.0876 19.0724 28.5046Z" fill="#4F4F4F"/>
<path d="M23.2951 28.5046V20.0587C23.2951 19.4756 22.8224 19.0029 22.2393 19.0029C21.6563 19.0029 21.1836 19.4756 21.1836 20.0587V28.5046C21.1836 29.0876 21.6563 29.5603 22.2393 29.5603C22.8224 29.5603 23.2951 29.0876 23.2951 28.5046Z" fill="#4F4F4F"/>
<path d="M14.8507 28.5046V20.0587C14.8507 19.4756 14.378 19.0029 13.795 19.0029C13.2119 19.0029 12.7393 19.4756 12.7393 20.0587V28.5046C12.7393 29.0876 13.2119 29.5603 13.795 29.5603C14.378 29.5603 14.8507 29.0876 14.8507 28.5046Z" fill="#4F4F4F"/>
</svg>
