<svg width="95" height="92" viewBox="0 0 95 92" fill="none" xmlns="http://www.w3.org/2000/svg">
<rect x="0.619632" y="0.619632" width="92.9448" height="90.4663" rx="6.81595" fill="#F3F7FF" stroke="#9CB0D9" stroke-width="1.23926"/>
<path d="M23.8462 60.8014V58.6749H27.9383V70.0488H25.5539V60.8014H23.8462ZM39.8576 64.1846C40.545 64.3243 41.0927 64.6518 41.5009 65.1674C41.9197 65.6722 42.1292 66.2682 42.1292 66.9556C42.1292 67.9115 41.807 68.6687 41.1626 69.2272C40.5289 69.775 39.6052 70.0488 38.3916 70.0488H33.5101V58.6749H38.2949C39.4441 58.6749 40.3248 58.9273 40.937 59.4321C41.5599 59.9368 41.8714 60.6457 41.8714 61.5586C41.8714 62.2675 41.6835 62.8475 41.3076 63.2986C40.9424 63.7496 40.4591 64.045 39.8576 64.1846ZM35.7817 63.4436H37.8277C38.3969 63.4436 38.8265 63.32 39.1165 63.073C39.4173 62.8152 39.5676 62.4501 39.5676 61.9775C39.5676 61.5049 39.4226 61.1398 39.1326 60.882C38.8427 60.6242 38.3969 60.4953 37.7955 60.4953H35.7817V63.4436ZM37.9405 68.1961C38.5419 68.1961 39.0038 68.0672 39.326 67.8095C39.6482 67.541 39.8093 67.1543 39.8093 66.6495C39.8093 66.1447 39.6428 65.7581 39.3099 65.4896C38.9877 65.2103 38.5258 65.0707 37.9244 65.0707H35.7817V68.1961H37.9405ZM47.2167 61.0109C47.9685 61.0109 48.6129 61.1881 49.1499 61.5425C49.6869 61.897 50.0682 62.3749 50.2938 62.9763V61.1236H52.5492V70.0488H50.2938V68.18C50.0682 68.7815 49.6869 69.2648 49.1499 69.63C48.6129 69.9844 47.9685 70.1616 47.2167 70.1616C46.4649 70.1616 45.7882 69.979 45.1868 69.6138C44.5853 69.2487 44.1127 68.7224 43.769 68.035C43.4361 67.3369 43.2696 66.5206 43.2696 65.5862C43.2696 64.6518 43.4361 63.8409 43.769 63.1536C44.1127 62.4554 44.5853 61.9238 45.1868 61.5586C45.7882 61.1935 46.4649 61.0109 47.2167 61.0109ZM47.9255 62.9925C47.2167 62.9925 46.6474 63.2234 46.2178 63.6852C45.7882 64.147 45.5734 64.7807 45.5734 65.5862C45.5734 66.3918 45.7882 67.0254 46.2178 67.4873C46.6474 67.9384 47.2167 68.1639 47.9255 68.1639C48.6129 68.1639 49.1768 67.933 49.6171 67.4712C50.0682 66.9986 50.2938 66.3703 50.2938 65.5862C50.2938 64.7915 50.0682 64.1632 49.6171 63.7013C49.1768 63.2287 48.6129 62.9925 47.9255 62.9925ZM59.3765 68.0995V70.0488H58.1844C57.1855 70.0488 56.4176 69.8072 55.8806 69.3239C55.3543 68.8405 55.0912 68.035 55.0912 66.9073V63.0408H53.8507V61.1236H55.0912V58.9165H57.3627V61.1236H59.3604V63.0408H57.3627V66.9395C57.3627 67.3691 57.4487 67.6699 57.6205 67.8417C57.7923 68.0135 58.0823 68.0995 58.4905 68.0995H59.3765ZM66.3276 60.9948C67.3586 60.9948 68.1803 61.3331 68.7924 62.0097C69.4046 62.6864 69.7107 63.6369 69.7107 64.8613V70.0488H67.4553V65.119C67.4553 64.4102 67.2727 63.8624 66.9075 63.4758C66.5424 63.0784 66.0429 62.8797 65.4093 62.8797C64.7648 62.8797 64.2493 63.0891 63.8627 63.508C63.476 63.9269 63.2827 64.5283 63.2827 65.3124V70.0488H61.0111V58.1271H63.2827V62.9119C63.519 62.3105 63.9056 61.8432 64.4426 61.5103C64.9904 61.1666 65.6187 60.9948 66.3276 60.9948Z" fill="#4F4F4F"/>
<path d="M36.8441 24.5559V17.8947C36.8441 17.3857 37.2583 16.9717 37.7672 16.9717C38.2763 16.9717 38.6903 17.3858 38.6903 17.8947H40.7908C40.7908 16.2275 39.4344 14.8711 37.7672 14.8711C36.0999 14.8711 34.7436 16.2275 34.7436 17.8947V24.5559H31V30.0765H32.5749V33.6279C32.5749 36.1028 34.4423 38.1485 36.8418 38.4332L36.2321 40.1689L38.2139 40.8651L39.0559 38.4684H55.1525L55.9944 40.8651L57.9763 40.1689L57.3666 38.4332C59.7661 38.1484 61.6334 36.1027 61.6334 33.6279V30.0765H63.2082V24.5559H36.8441V24.5559ZM59.5327 33.6278C59.5327 35.1386 58.3036 36.3678 56.7927 36.3678H37.4155C35.9046 36.3678 34.6754 35.1386 34.6754 33.6278V30.0764H59.5327V33.6278ZM61.1076 27.9759H33.1005V26.6564H61.1076V27.9759H61.1076Z" fill="#404A5E"/>
</svg>
