<svg width="95" height="92" viewBox="0 0 95 92" fill="none" xmlns="http://www.w3.org/2000/svg">
<rect x="0.619632" y="0.619632" width="92.9448" height="90.4663" rx="6.81595" fill="#F3F7FF" stroke="#9CB0D9" stroke-width="1.23926"/>
<path d="M29.6474 58.2399C30.4207 58.2399 31.0812 58.3741 31.629 58.6426C32.1875 58.9112 32.6063 59.2817 32.8856 59.7543C33.1756 60.2268 33.3206 60.7531 33.3206 61.3331C33.3206 62.0634 33.1219 62.6649 32.7245 63.1375C32.3271 63.5993 31.8008 63.8839 31.1456 63.9913V64.0719C32.7352 64.5444 33.53 65.4788 33.53 66.8751C33.53 67.8524 33.2024 68.6472 32.5473 69.2594C31.8921 69.8609 30.9684 70.1616 29.7763 70.1616C28.5089 70.1616 27.4993 69.8501 26.7475 69.2272C25.9957 68.5935 25.5768 67.643 25.4909 66.3756H27.7141C27.7678 66.9556 27.9558 67.4175 28.278 67.7611C28.6109 68.0941 29.0781 68.2606 29.6796 68.2606C30.1951 68.2606 30.5979 68.1209 30.8879 67.8417C31.1779 67.5517 31.3229 67.1758 31.3229 66.714C31.3229 66.1662 31.1134 65.7473 30.6946 65.4574C30.2757 65.1674 29.6581 65.0224 28.8419 65.0224H28.3747V63.1697H28.8419C30.3455 63.1912 31.0973 62.6703 31.0973 61.607C31.0973 61.1451 30.9631 60.7853 30.6946 60.5276C30.4261 60.2591 30.0609 60.1248 29.599 60.1248C29.1157 60.1248 28.7183 60.2805 28.4069 60.592C28.0954 60.8927 27.9182 61.317 27.8752 61.8647H25.652C25.7164 60.7048 26.0923 59.8133 26.7797 59.1904C27.4671 58.5567 28.423 58.2399 29.6474 58.2399ZM45.3294 64.1846C46.0168 64.3243 46.5645 64.6518 46.9726 65.1674C47.3915 65.6722 47.6009 66.2682 47.6009 66.9556C47.6009 67.9115 47.2787 68.6687 46.6343 69.2272C46.0006 69.775 45.077 70.0488 43.8633 70.0488H38.9819V58.6749H43.7667C44.9159 58.6749 45.7966 58.9273 46.4088 59.4321C47.0317 59.9368 47.3432 60.6457 47.3432 61.5586C47.3432 62.2675 47.1552 62.8475 46.7793 63.2986C46.4141 63.7496 45.9308 64.045 45.3294 64.1846ZM41.2534 63.4436H43.2995C43.8687 63.4436 44.2983 63.32 44.5883 63.073C44.889 62.8152 45.0394 62.4501 45.0394 61.9775C45.0394 61.5049 44.8944 61.1398 44.6044 60.882C44.3144 60.6242 43.8687 60.4953 43.2672 60.4953H41.2534V63.4436ZM43.4122 68.1961C44.0137 68.1961 44.4755 68.0672 44.7977 67.8095C45.1199 67.541 45.281 67.1543 45.281 66.6495C45.281 66.1447 45.1146 65.7581 44.7816 65.4896C44.4594 65.2103 43.9976 65.0707 43.3961 65.0707H41.2534V68.1961H43.4122ZM57.586 65.2479C57.586 65.4735 57.5592 65.7312 57.5055 66.0212H50.9646C50.9968 66.816 51.2117 67.4013 51.609 67.7773C52.0064 68.1532 52.5005 68.3411 53.0912 68.3411C53.6175 68.3411 54.0525 68.2122 54.3961 67.9545C54.7506 67.6967 54.9761 67.3476 55.0728 66.9073H57.4732C57.3551 67.5302 57.1027 68.0887 56.716 68.5828C56.3294 69.0768 55.83 69.4635 55.2178 69.7427C54.6163 70.022 53.9451 70.1616 53.204 70.1616C52.334 70.1616 51.5607 69.979 50.8841 69.6138C50.2074 69.2379 49.6812 68.7063 49.3052 68.0189C48.9293 67.3315 48.7414 66.5206 48.7414 65.5862C48.7414 64.6518 48.9293 63.8409 49.3052 63.1536C49.6812 62.4554 50.2074 61.9238 50.8841 61.5586C51.5607 61.1935 52.334 61.0109 53.204 61.0109C54.0847 61.0109 54.8526 61.1935 55.5078 61.5586C56.1737 61.9238 56.6838 62.4286 57.0383 63.073C57.4034 63.7067 57.586 64.4317 57.586 65.2479ZM55.2983 65.0224C55.3306 64.292 55.1372 63.7389 54.7184 63.363C54.3102 62.9871 53.8054 62.7991 53.204 62.7991C52.5918 62.7991 52.0762 62.9871 51.6574 63.363C51.2385 63.7389 51.0076 64.292 50.9646 65.0224H55.2983ZM62.6945 61.0109C63.4463 61.0109 64.0854 61.1881 64.6117 61.5425C65.1487 61.897 65.5353 62.3749 65.7716 62.9763V58.1271H68.0271V70.0488H65.7716V68.18C65.5353 68.7815 65.1487 69.2648 64.6117 69.63C64.0854 69.9844 63.4463 70.1616 62.6945 70.1616C61.9427 70.1616 61.2661 69.979 60.6646 69.6138C60.0632 69.2487 59.5906 68.7224 59.2469 68.035C58.9139 67.3369 58.7475 66.5206 58.7475 65.5862C58.7475 64.6518 58.9139 63.8409 59.2469 63.1536C59.5906 62.4554 60.0632 61.9238 60.6646 61.5586C61.2661 61.1935 61.9427 61.0109 62.6945 61.0109ZM63.4034 62.9925C62.6945 62.9925 62.1253 63.2234 61.6957 63.6852C61.2661 64.147 61.0513 64.7807 61.0513 65.5862C61.0513 66.3918 61.2661 67.0254 61.6957 67.4873C62.1253 67.9384 62.6945 68.1639 63.4034 68.1639C64.0908 68.1639 64.6546 67.933 65.095 67.4712C65.5461 66.9986 65.7716 66.3703 65.7716 65.5862C65.7716 64.7915 65.5461 64.1632 65.095 63.7013C64.6546 63.2287 64.0908 62.9925 63.4034 62.9925Z" fill="#4F4F4F"/>
<path d="M65.2167 25.7296V31.7247H41.3125C41.6774 31.0376 41.885 30.2549 41.885 29.4241C41.885 26.7103 39.6771 24.5024 36.9633 24.5024H31.9216C31.1089 24.5024 30.3423 24.7016 29.6662 25.0519V21.0674H27V29.424V31.7246V34.3457V41.3V43.9342H29.6663V41.3H65.2166V43.9342H67.8829V41.3V31.7247V25.7296H65.2167V25.7296ZM29.6663 29.4241C29.6663 28.1805 30.678 27.1687 31.9217 27.1687H36.9635C38.2071 27.1687 39.2189 28.1805 39.2189 29.4241C39.2189 30.6678 38.2071 31.6795 36.9635 31.6795H29.6663V29.4241ZM65.2167 38.6338H29.6663V34.3909H65.2166V38.6338H65.2167Z" fill="#404A5E"/>
</svg>
