<svg width="95" height="92" viewBox="0 0 95 92" fill="none" xmlns="http://www.w3.org/2000/svg">
<rect x="0.619632" y="0.914554" width="92.9448" height="90.4663" rx="6.81595" fill="#F3F7FF" stroke="#9CB0D9" stroke-width="1.23926"/>
<path d="M47.7407 23.7043C47.7407 20.3403 45.003 17.6035 41.6399 17.6035C38.2438 17.6035 35.481 20.3403 35.481 23.7043C35.481 27.0683 38.2438 29.8051 41.6399 29.8051C45.0283 29.8051 47.7407 27.0436 47.7407 23.7043ZM45.9976 23.7043C45.9976 24.8429 45.5582 25.8805 44.8407 26.6575C44.2671 25.2806 44.1098 23.7761 44.3872 22.2503C44.4813 21.7328 44.6295 21.2275 44.8291 20.739C45.5534 21.5174 45.9976 22.5598 45.9976 23.7043ZM37.224 23.7043C37.224 21.3015 39.205 19.3466 41.6399 19.3466C42.2569 19.3466 42.8441 19.4763 43.3765 19.7086C43.0486 20.4223 42.8122 21.1691 42.6722 21.9385C42.3088 23.9371 42.5584 25.9087 43.3926 27.6928C42.8559 27.9296 42.2632 28.0621 41.6399 28.0621C39.205 28.0621 37.224 26.1072 37.224 23.7043Z" fill="black"/>
<path d="M50.047 14.332C48.9247 14.567 47.8331 15.0246 46.8553 15.6649C44.732 14.2847 42.1366 13.7987 39.5885 14.332C35.7717 15.131 32.8222 18.2664 32.1545 21.9386C31.5309 25.3674 32.8225 28.8154 35.5379 31.0584V32.4199C35.5379 33.8616 36.7108 35.0345 38.1525 35.0345H40.7672V35.9061C40.7672 37.3478 41.9401 38.5207 43.3818 38.5207H50.3542C51.7959 38.5207 52.9688 37.3478 52.9688 35.9061V35.0345H55.5834C57.0251 35.0345 58.1981 33.8616 58.1981 32.4199V31.0579C59.2107 30.2201 60.0565 29.1858 60.6593 28.0443C61.3779 26.6834 61.7424 25.2232 61.7424 23.7045C61.7424 17.687 56.1616 13.052 50.047 14.332V14.332ZM38.1525 33.2915C37.672 33.2915 37.281 32.9005 37.281 32.4199V30.9778C37.2843 30.9689 37.2874 30.96 37.2904 30.9509C37.4086 30.5943 37.2849 30.2021 36.9836 29.9777C34.5283 28.1499 33.3351 25.1889 33.8694 22.2504C34.4093 19.2817 36.8164 16.6932 39.9456 16.0382C44.963 14.9879 49.4826 18.7808 49.4826 23.7045C49.4826 26.2334 48.274 28.4808 46.3424 29.9412C46.1245 30.1059 45.9964 30.3632 45.9964 30.6364V32.42C45.9964 32.9005 45.6055 33.2915 45.1249 33.2915H42.5103V32.42C42.5103 31.9386 42.1201 31.5484 41.6387 31.5484C41.1574 31.5484 40.7672 31.9386 40.7672 32.42V33.2915H38.1525V33.2915ZM50.3545 19.7095C50.9003 19.4711 51.4914 19.3468 52.0973 19.3468C54.5322 19.3468 56.5131 21.3017 56.5131 23.7045C56.5131 26.1074 54.5322 28.0622 52.0973 28.0622C51.4886 28.0622 50.8949 27.9369 50.3471 27.6964C50.9203 26.4634 51.2258 25.1088 51.2258 23.7045C51.2257 22.3034 50.9222 20.9457 50.3545 19.7095ZM51.2257 35.9061C51.2257 36.3867 50.8347 36.7776 50.3542 36.7776H43.3818C42.9012 36.7776 42.5103 36.3867 42.5103 35.9061V35.0345H45.1249C45.7941 35.0345 46.405 34.7816 46.868 34.3666C47.331 34.7816 47.9419 35.0345 48.6111 35.0345H51.2257V35.9061ZM56.801 29.941C56.5831 30.1057 56.455 30.3631 56.455 30.6363V32.4199C56.455 32.9005 56.064 33.2915 55.5834 33.2915H52.9688V32.4199C52.9688 31.9386 52.5786 31.5484 52.0973 31.5484C51.6159 31.5484 51.2257 31.9386 51.2257 32.4199V33.2915H48.6111C48.1305 33.2915 47.7395 32.9005 47.7395 32.4199V31.058C48.4028 30.5095 48.98 29.8875 49.4645 29.2093C50.2817 29.601 51.1774 29.8053 52.0973 29.8053C55.4933 29.8053 58.2562 27.0685 58.2562 23.7045C58.2562 20.3405 55.4933 17.6037 52.0973 17.6037C51.1838 17.6037 50.2938 17.8053 49.4809 18.1918C49.1364 17.7035 48.7443 17.245 48.3078 16.8227C48.9692 16.457 49.6792 16.1899 50.4042 16.0382C55.4445 14.9831 59.9993 18.802 59.9993 23.7045C59.9993 26.1319 58.8336 28.405 56.801 29.941V29.941Z" fill="black"/>
<path d="M45.5909 56.9006V55.9588L50.077 50.1094H51.2915V55.9216H52.5803V56.9006H51.2915V58.9082H50.1514V56.9006H45.5909ZM50.2257 51.485L46.7806 55.9216H50.2257V51.485ZM54.6265 57.5822V58.9082H53.2634V57.5822H54.6265ZM61.6023 51.0637H57.1162V53.9883C57.3228 53.7074 57.6202 53.4844 58.0085 53.3191C58.3968 53.1539 58.8223 53.0713 59.2849 53.0713C59.9046 53.0713 60.4168 53.2035 60.8216 53.4678C61.2347 53.7239 61.5363 54.0668 61.7263 54.4964C61.9246 54.9178 62.0237 55.3887 62.0237 55.9092C62.0237 56.8097 61.7717 57.545 61.2677 58.1151C60.7638 58.6851 60.0243 58.9702 59.0495 58.9702C58.1737 58.9702 57.4591 58.7347 56.9055 58.2638C56.352 57.7846 56.0422 57.1443 55.9761 56.3429H57.0914C57.1823 56.8552 57.393 57.2559 57.7234 57.545C58.0622 57.8259 58.4877 57.9664 58.9999 57.9664C59.636 57.9664 60.1152 57.7763 60.4374 57.3963C60.7596 57.0163 60.9207 56.5164 60.9207 55.8968C60.9207 55.2937 60.7555 54.8228 60.425 54.484C60.0946 54.1453 59.6278 53.9759 59.0247 53.9759C58.5951 53.9759 58.2192 54.0709 57.8969 54.261C57.5747 54.4427 57.331 54.6906 57.1658 55.0045H56.0752V50.0599H61.6023V51.0637Z" fill="#4F4F4F"/>
<g clip-path="url(#clip0_27_87)">
<path d="M40.8883 52.4291C40.8234 52.2284 40.6453 52.0858 40.4347 52.0668L37.5732 51.807L36.4417 49.1586C36.3582 48.9645 36.1682 48.8389 35.9571 48.8389C35.746 48.8389 35.556 48.9645 35.4726 49.1591L34.341 51.807L31.4791 52.0668C31.2688 52.0863 31.0912 52.2284 31.0259 52.4291C30.9607 52.6299 31.021 52.8501 31.18 52.9889L33.343 54.8858L32.7052 57.6953C32.6585 57.9019 32.7387 58.1154 32.9101 58.2393C33.0022 58.3059 33.11 58.3398 33.2187 58.3398C33.3124 58.3398 33.4054 58.3145 33.4888 58.2646L35.9571 56.7894L38.4245 58.2646C38.6051 58.3732 38.8327 58.3633 39.0037 58.2393C39.1752 58.1151 39.2553 57.9014 39.2086 57.6953L38.5708 54.8858L40.7337 52.9893C40.8928 52.8501 40.9535 52.6303 40.8883 52.4291Z" fill="#FFC107"/>
</g>
<path d="M28.5207 66.2926C29.9384 66.2926 31.1144 66.6577 32.0488 67.3881C32.9832 68.1184 33.6008 69.1119 33.9015 70.3685H31.5172C31.2702 69.7563 30.8835 69.273 30.3572 68.9186C29.8417 68.5641 29.2188 68.3869 28.4884 68.3869C27.887 68.3869 27.3446 68.5373 26.8613 68.838C26.378 69.1387 26.0021 69.5683 25.7335 70.1268C25.465 70.6853 25.3308 71.3405 25.3308 72.0923C25.3308 72.8334 25.465 73.4832 25.7335 74.0417C26.0021 74.6002 26.378 75.0298 26.8613 75.3305C27.3446 75.6312 27.887 75.7816 28.4884 75.7816C29.2188 75.7816 29.8417 75.6044 30.3572 75.25C30.8835 74.8955 31.2702 74.4122 31.5172 73.8H33.9015C33.6008 75.0566 32.9832 76.0501 32.0488 76.7805C31.1144 77.5108 29.9384 77.876 28.5207 77.876C27.4359 77.876 26.4746 77.6343 25.6369 77.151C24.8099 76.6569 24.1655 75.9696 23.7036 75.0889C23.2525 74.2082 23.027 73.2093 23.027 72.0923C23.027 70.9646 23.2525 69.9604 23.7036 69.0797C24.1655 68.199 24.8099 67.517 25.6369 67.0336C26.4639 66.5396 27.4251 66.2926 28.5207 66.2926ZM37.8774 70.5618C38.2104 69.9926 38.6507 69.5469 39.1985 69.2247C39.7462 68.8917 40.3584 68.7252 41.0351 68.7252V71.1579H40.3745C38.7098 71.1579 37.8774 71.9312 37.8774 73.4778V77.7793H35.6058V68.8541H37.8774V70.5618ZM42.0345 66.2926C42.0345 65.9274 42.1634 65.632 42.4212 65.4065C42.679 65.1702 43.0173 65.0521 43.4361 65.0521C43.855 65.0521 44.1933 65.1702 44.4511 65.4065C44.7089 65.632 44.8377 65.9274 44.8377 66.2926C44.8377 66.647 44.7089 66.9423 44.4511 67.1786C44.1933 67.4042 43.855 67.517 43.4361 67.517C43.0173 67.517 42.679 67.4042 42.4212 67.1786C42.1634 66.9423 42.0345 66.647 42.0345 66.2926ZM44.5639 68.8541V77.7793H42.2923V68.8541H44.5639ZM57.9767 68.7252C59.0615 68.7252 59.9153 69.0636 60.5382 69.7402C61.1719 70.4061 61.4888 71.3566 61.4888 72.5917V77.7793H59.2333V72.8495C59.2333 72.1621 59.0561 71.6359 58.7017 71.2707C58.358 70.8948 57.88 70.7068 57.2678 70.7068C56.6341 70.7068 56.1294 70.9055 55.7534 71.3029C55.3775 71.7003 55.1896 72.2803 55.1896 73.0428V77.7793H52.9341V72.8495C52.9341 72.1621 52.7569 71.6359 52.4025 71.2707C52.0588 70.8948 51.5808 70.7068 50.9686 70.7068C50.335 70.7068 49.8302 70.9055 49.4543 71.3029C49.0784 71.7003 48.8904 72.2803 48.8904 73.0428V77.7793H46.6188V68.8541H48.8904V70.5457C49.1267 69.9657 49.4972 69.52 50.002 69.2085C50.5176 68.8863 51.1136 68.7252 51.7903 68.7252C52.5099 68.7252 53.1328 68.8971 53.6591 69.2408C54.1961 69.5845 54.5989 70.0785 54.8674 70.7229C55.1466 70.1107 55.5601 69.6274 56.1079 69.273C56.6664 68.9078 57.2893 68.7252 57.9767 68.7252ZM71.878 72.9784C71.878 73.2039 71.8511 73.4617 71.7974 73.7517H65.2566C65.2888 74.5465 65.5036 75.1318 65.901 75.5077C66.2984 75.8836 66.7924 76.0716 67.3832 76.0716C67.9094 76.0716 68.3444 75.9427 68.6881 75.6849C69.0425 75.4272 69.2681 75.0781 69.3647 74.6378H71.7652C71.6471 75.2607 71.3947 75.8192 71.008 76.3132C70.6214 76.8073 70.1219 77.194 69.5097 77.4732C68.9083 77.7524 68.237 77.8921 67.4959 77.8921C66.626 77.8921 65.8527 77.7095 65.176 77.3443C64.4994 76.9684 63.9731 76.4368 63.5972 75.7494C63.2213 75.062 63.0333 74.2511 63.0333 73.3167C63.0333 72.3823 63.2213 71.5714 63.5972 70.884C63.9731 70.1859 64.4994 69.6543 65.176 69.2891C65.8527 68.9239 66.626 68.7413 67.4959 68.7413C68.3766 68.7413 69.1446 68.9239 69.7997 69.2891C70.4656 69.6543 70.9758 70.1591 71.3302 70.8035C71.6954 71.4372 71.878 72.1621 71.878 72.9784ZM69.5903 72.7528C69.6225 72.0225 69.4292 71.4694 69.0103 71.0935C68.6022 70.7176 68.0974 70.5296 67.4959 70.5296C66.8837 70.5296 66.3682 70.7176 65.9493 71.0935C65.5305 71.4694 65.2995 72.0225 65.2566 72.7528H69.5903Z" fill="#4F4F4F"/>
<defs>
<clipPath id="clip0_27_87">
<rect width="9.91411" height="9.91411" fill="white" transform="translate(31 48.626)"/>
</clipPath>
</defs>
</svg>
