<svg width="34" height="34" viewBox="0 0 34 34" fill="none" xmlns="http://www.w3.org/2000/svg">
<path d="M25.3731 3.71094C24.8265 3.71094 24.3833 4.15409 24.3833 4.70071C24.3833 5.24733 24.8265 5.69049 25.3731 5.69049C26.8733 5.69049 28.0938 6.91101 28.0938 8.41125C28.0938 8.95787 28.537 9.40102 29.0836 9.40102C29.6302 9.40102 30.0734 8.95787 30.0734 8.41125C30.0735 5.81949 27.9649 3.71094 25.3731 3.71094V3.71094Z" fill="#4F4F4F"/>
<path d="M25.3731 0C24.8265 0 24.3833 0.443155 24.3833 0.989775C24.3833 1.53639 24.8265 1.97955 25.3731 1.97955C28.9193 1.97955 31.8044 4.86468 31.8044 8.41091C31.8044 8.95753 32.2476 9.40068 32.7942 9.40068C33.3408 9.40068 33.784 8.95753 33.784 8.41091C33.784 3.77315 30.0108 0 25.3731 0V0Z" fill="#4F4F4F"/>
<path d="M25.3731 9.40045C25.9197 9.40045 26.3629 8.95731 26.3629 8.41067C26.3629 7.86404 25.9197 7.4209 25.3731 7.4209C24.8264 7.4209 24.3833 7.86404 24.3833 8.41067C24.3833 8.95731 24.8264 9.40045 25.3731 9.40045Z" fill="#4F4F4F"/>
<path d="M24.3132 13.782H16.9857L18.9305 1.14034C18.9964 0.711829 18.7758 0.290317 18.3863 0.10028C17.9965 -0.0898889 17.5286 -0.0041744 17.2315 0.311498L0.269081 18.3342C-0.00158988 18.6217 -0.0754271 19.0426 0.0812213 19.405C0.237804 19.7676 0.594915 20.0023 0.989769 20.0023H8.31727L6.3725 32.6439C6.30658 33.0725 6.52716 33.494 6.91674 33.6841C7.30645 33.8742 7.77441 33.7885 8.07148 33.4728L25.0339 15.4502C25.3046 15.1627 25.3784 14.7418 25.2218 14.3793C25.0652 14.0167 24.7081 13.782 24.3132 13.782V13.782ZM8.81341 29.7962L10.4492 19.163C10.5415 18.5635 10.0776 18.0227 9.47095 18.0227H3.28057L16.4895 3.98812L14.8537 14.6213C14.7614 15.2208 15.2253 15.7616 15.832 15.7616H22.0224L8.81341 29.7962Z" fill="#4F4F4F"/>
</svg>
