<svg width="474" height="255" viewBox="0 0 474 255" fill="none" xmlns="http://www.w3.org/2000/svg">
<path d="M388.338 166.379L402.31 74.7356C402.654 72.5086 404.568 70.8599 406.826 70.8599H468.495L452.773 172.076C451.711 178.937 445.991 183.766 438.927 183.766H346.267C343.704 183.766 341.633 181.687 341.633 179.132C341.633 176.569 343.712 174.498 346.267 174.498H378.766C383.65 174.49 387.611 171.138 388.338 166.379Z" fill="#C7D2EF"/>
<path d="M450.419 166.379L464.445 74.3913C464.757 72.3206 466.484 70.8594 468.618 70.8594H468.743C471.728 70.8594 474.173 73.6568 473.72 76.5558L458.881 172.075C457.819 178.936 452.099 183.765 445.035 183.765H377.826C375.263 183.765 373.192 181.687 373.192 179.132C373.192 176.568 375.27 174.498 377.826 174.498H440.831C445.73 174.49 449.692 171.138 450.419 166.379Z" fill="#E3EDFF"/>
<path d="M406.011 183.766V239.808" stroke="#114093" stroke-miterlimit="10"/>
<path d="M435.243 244.419C435.243 241.872 433.18 239.816 430.641 239.816H381.396C378.849 239.816 376.794 241.879 376.794 244.419" stroke="#114093" stroke-miterlimit="10"/>
<path d="M411.052 244.419C411.052 241.872 408.989 239.816 406.449 239.816" stroke="#114093" stroke-miterlimit="10"/>
<path d="M430.594 249.068C430.594 251.639 432.672 253.718 435.243 253.718C437.814 253.718 439.893 251.639 439.893 249.068C439.893 246.498 437.814 244.419 435.243 244.419C432.672 244.419 430.594 246.498 430.594 249.068Z" fill="#E3EDFF"/>
<g opacity="0.45">
<path opacity="0.45" d="M433.532 249.068C433.532 250.014 434.298 250.78 435.243 250.78C436.189 250.78 436.954 250.014 436.954 249.068C436.954 248.123 436.189 247.357 435.243 247.357C434.298 247.357 433.532 248.123 433.532 249.068Z" fill="#B7C2CE"/>
</g>
<path d="M406.403 249.068C406.403 251.639 408.481 253.718 411.052 253.718C413.623 253.718 415.702 251.639 415.702 249.068C415.702 246.498 413.623 244.419 411.052 244.419C408.481 244.419 406.403 246.498 406.403 249.068Z" fill="#E3EDFF"/>
<g opacity="0.45">
<path opacity="0.45" d="M409.34 249.068C409.34 250.014 410.106 250.78 411.052 250.78C411.997 250.78 412.763 250.014 412.763 249.068C412.763 248.123 411.997 247.357 411.052 247.357C410.106 247.357 409.34 248.123 409.34 249.068Z" fill="#B7C2CE"/>
</g>
<path d="M372.137 249.068C372.137 251.639 374.216 253.718 376.787 253.718C379.357 253.718 381.436 251.639 381.436 249.068C381.436 246.498 379.357 244.419 376.787 244.419C374.216 244.419 372.137 246.498 372.137 249.068Z" fill="#E3EDFF"/>
<g opacity="0.45">
<path opacity="0.45" d="M375.075 249.068C375.075 250.014 375.84 250.78 376.786 250.78C377.732 250.78 378.497 250.014 378.497 249.068C378.497 248.123 377.732 247.357 376.786 247.357C375.84 247.357 375.075 248.123 375.075 249.068Z" fill="#B7C2CE"/>
</g>
<path d="M254.958 166.378L240.987 74.7347C240.643 72.5077 238.728 70.8589 236.47 70.8589H174.801L190.523 172.075C191.586 178.936 197.306 183.765 204.37 183.765H297.037C299.6 183.765 301.671 181.686 301.671 179.131C301.671 176.568 299.592 174.497 297.037 174.497H264.538C259.639 174.489 255.685 171.137 254.958 166.378Z" fill="#C7D2EF"/>
<path d="M192.875 166.379L178.849 74.3913C178.537 72.3206 176.81 70.8594 174.676 70.8594H174.551C171.566 70.8594 169.121 73.6568 169.574 76.5558L184.405 172.075C185.468 178.936 191.188 183.765 198.252 183.765H265.461C268.024 183.765 270.094 181.687 270.094 179.132C270.094 176.568 268.016 174.498 265.461 174.498H202.456C197.564 174.49 193.602 171.138 192.875 166.379Z" fill="#E3EDFF"/>
<path d="M237.277 183.765V239.808" stroke="#114093" stroke-miterlimit="10"/>
<path d="M208.051 244.418C208.051 241.871 210.114 239.815 212.653 239.815H261.898C264.445 239.815 266.5 241.878 266.5 244.418" stroke="#114093" stroke-miterlimit="10"/>
<path d="M232.246 244.418C232.246 241.871 234.309 239.815 236.848 239.815" stroke="#114093" stroke-miterlimit="10"/>
<path d="M212.701 249.067C212.701 251.638 210.622 253.717 208.051 253.717C205.48 253.717 203.402 251.638 203.402 249.067C203.402 246.497 205.48 244.418 208.051 244.418C210.622 244.418 212.701 246.497 212.701 249.067Z" fill="#E3EDFF"/>
<g opacity="0.45">
<path opacity="0.45" d="M209.762 249.067C209.762 250.013 208.996 250.779 208.051 250.779C207.105 250.779 206.339 250.013 206.339 249.067C206.339 248.122 207.105 247.356 208.051 247.356C208.996 247.356 209.762 248.122 209.762 249.067Z" fill="#B7C2CE"/>
</g>
<path d="M236.893 249.067C236.893 251.638 234.814 253.717 232.244 253.717C229.673 253.717 227.594 251.638 227.594 249.067C227.594 246.497 229.673 244.418 232.244 244.418C234.807 244.418 236.893 246.497 236.893 249.067Z" fill="#E3EDFF"/>
<g opacity="0.45">
<path opacity="0.45" d="M233.949 249.067C233.949 250.013 233.184 250.779 232.238 250.779C231.293 250.779 230.527 250.013 230.527 249.067C230.527 248.122 231.293 247.356 232.238 247.356C233.184 247.356 233.949 248.122 233.949 249.067Z" fill="#B7C2CE"/>
</g>
<path d="M271.157 249.067C271.157 251.638 269.079 253.717 266.508 253.717C263.937 253.717 261.858 251.638 261.858 249.067C261.858 246.497 263.937 244.418 266.508 244.418C269.079 244.418 271.157 246.497 271.157 249.067Z" fill="#E3EDFF"/>
<g opacity="0.45">
<path opacity="0.45" d="M268.211 249.067C268.211 250.013 267.445 250.779 266.499 250.779C265.554 250.779 264.788 250.013 264.788 249.067C264.788 248.122 265.554 247.356 266.499 247.356C267.453 247.356 268.211 248.122 268.211 249.067Z" fill="#B7C2CE"/>
</g>
<path d="M285.57 216.482L287.711 242.37L287.485 250.864L320.781 250.693C321.593 250.685 322.25 250.028 322.242 249.216C322.242 248.606 321.859 248.059 321.289 247.848L306.926 241.245L306.098 214.263" fill="#F9A895"/>
<path d="M323.703 250.341C323.359 249.279 322.734 248.075 322.109 247.809L306.887 241.253C298.495 244.653 287.633 242.058 287.633 242.058L285.695 253.522C285.695 253.904 286.008 254.209 286.383 254.201H323.453C324.188 254.194 323.711 250.372 323.703 250.341Z" fill="#FF8D27"/>
<path d="M310.176 241.902C309.324 243.012 308.598 244.223 308.027 245.505" stroke="#DD5E17" stroke-width="0.75" stroke-miterlimit="10"/>
<path d="M312.091 243.05C311.208 244.277 310.856 244.98 310.325 246.113" stroke="#DD5E17" stroke-width="0.75" stroke-miterlimit="10"/>
<path d="M313.715 243.887C313.114 244.692 312.527 245.809 312.059 246.7" stroke="#DD5E17" stroke-width="0.75" stroke-miterlimit="10"/>
<path d="M285.883 251.717L323.86 251.521" stroke="#DD5E17" stroke-width="0.75" stroke-miterlimit="10"/>
<path d="M286.938 246.114C286.938 246.114 295.862 246.293 296.627 251.67" stroke="#DD5E17" stroke-width="0.75" stroke-miterlimit="10"/>
<path d="M318.985 246.458C318.985 246.458 316.524 249.951 316.039 251.568" stroke="#DD5E17" stroke-width="0.75" stroke-miterlimit="10"/>
<path d="M269.786 216.482L270.239 242.37L270.012 250.864L303.308 250.693C304.121 250.685 304.777 250.028 304.769 249.216C304.769 248.606 304.386 248.059 303.816 247.848L289.454 241.245L290.313 214.263" fill="#FFCBBB"/>
<path d="M306.23 250.341C305.887 249.279 305.261 248.075 304.636 247.809L289.414 241.253C281.022 244.653 270.161 242.058 270.161 242.058L268.223 253.522C268.223 253.904 268.535 254.209 268.91 254.201H305.98C306.723 254.194 306.238 250.372 306.23 250.341Z" fill="#FFB548"/>
<path d="M292.705 241.901C291.853 243.011 291.126 244.222 290.556 245.504" stroke="#ED841B" stroke-width="0.75" stroke-miterlimit="10"/>
<path d="M294.625 243.05C293.742 244.277 293.391 244.98 292.859 246.113" stroke="#ED841B" stroke-width="0.75" stroke-miterlimit="10"/>
<path d="M296.243 243.887C295.641 244.692 295.055 245.809 294.586 246.7" stroke="#ED841B" stroke-width="0.75" stroke-miterlimit="10"/>
<path d="M268.418 251.716L306.387 251.521" stroke="#ED841B" stroke-width="0.75" stroke-miterlimit="10"/>
<path d="M269.465 246.114C269.465 246.114 278.389 246.293 279.154 251.67" stroke="#ED841B" stroke-width="0.75" stroke-miterlimit="10"/>
<path d="M301.52 246.457C301.52 246.457 299.059 249.95 298.574 251.567" stroke="#ED841B" stroke-width="0.75" stroke-miterlimit="10"/>
<path d="M218.047 135.146C218.047 135.146 212.108 158.041 220.29 169.364C223.892 174.349 230.065 174.49 236.019 174.49H271.167C274.121 174.49 276.59 176.756 276.84 179.694L281.591 235.206H310.113C310.113 235.206 307.261 187.422 306.495 177.936C305.878 170.263 304.479 159.885 301.478 153.173C297.446 144.163 289.906 139.553 282.248 139.553H269.034C268.362 139.553 267.815 139.006 267.815 138.334V135.466" fill="#1A53E2"/>
<path d="M281.942 229.298H309.729" stroke="#2A36C6" stroke-width="0.75" stroke-miterlimit="10"/>
<path d="M201.16 135.146C201.16 135.146 195.222 158.041 203.403 169.364C207.005 174.349 213.178 174.49 219.133 174.49H254.281C257.234 174.49 259.704 176.756 259.954 179.694L264.705 235.205H293.226C293.226 235.205 290.139 187.438 289.608 177.936C289.069 168.426 288.28 159.533 284.591 153.173C278.817 143.233 268.713 139.709 257.602 139.709C246.49 139.709 236.605 139.709 236.605 139.709V134.161" fill="#4868EF"/>
<path d="M206.342 136.936C206.342 136.936 202.662 157.651 208.421 164.418C211.531 168.075 217.266 168.254 221.611 168.254H259.775C262.611 168.254 264.971 170.435 265.198 173.263L270.097 235.213" stroke="#1D2EA8" stroke-width="0.75" stroke-miterlimit="10"/>
<path d="M264.188 229.298H292.834" stroke="#1D2EA8" stroke-width="0.75" stroke-miterlimit="10"/>
<path d="M219.804 138.201C216.983 144.663 205.458 144.163 205.458 144.163" stroke="#1D2EA8" stroke-width="0.75" stroke-miterlimit="10"/>
<path d="M228.602 43.0954C228.579 42.7203 228.118 42.5171 227.75 42.5718C227.219 42.6421 226.774 43.0485 226.539 43.5251C226.297 44.0018 226.234 44.5488 226.219 45.0801C226.203 45.5802 226.234 46.096 226.461 46.5335C226.867 47.315 227.93 47.6822 228.735 47.3228" fill="#F9BBAF"/>
<path d="M229.195 36.6564C229.195 36.6564 226.101 48.4557 227.804 50.878C230.352 54.5038 236.408 54.7851 238.963 53.1051C241.104 51.6985 242.862 44.1814 242.862 42.2278C242.862 36.9377 231.985 33.8668 229.195 36.6564Z" fill="#FFCBBB"/>
<path d="M229.119 40.9463C229.026 41.1651 228.947 41.3917 228.885 41.6183C228.776 42.0012 229.369 42.1653 229.479 41.7824C229.541 41.5558 229.596 41.3214 229.643 41.087C229.698 40.7431 229.252 40.6337 229.119 40.9463Z" fill="#00276F"/>
<path d="M230.368 39.7431C230.368 39.7431 229.571 38.6413 228.391 39.4852" stroke="#00276F" stroke-width="0.5" stroke-miterlimit="10" stroke-linecap="round" stroke-linejoin="round"/>
<path d="M235.399 42.3999C235.321 42.6265 235.251 42.8531 235.204 43.0797C235.118 43.4626 235.712 43.6345 235.798 43.2438C235.86 42.9859 235.899 42.7281 235.93 42.4702C235.962 42.1498 235.493 42.1264 235.399 42.3999Z" fill="#00276F"/>
<path d="M235.129 40.3292C235.129 40.3292 236.426 39.8995 237.754 41.4467" stroke="#00276F" stroke-width="0.5" stroke-miterlimit="10" stroke-linecap="round" stroke-linejoin="round"/>
<path d="M231.095 52.2689L230.048 61.1926C230.048 61.1926 230.501 65.0997 236.354 65.0997C242.207 65.0997 246.403 60.9191 246.403 60.9191L244.363 45.6191" fill="#FFCBBB"/>
<path d="M231.439 53.7534C231.439 53.7534 235.502 54.5504 238.3 53.0501C240.503 51.8624 241.3 49.1196 241.3 49.1196" stroke="#F7A794" stroke-miterlimit="10"/>
<path d="M232.46 41.6416C232.46 41.6416 230.506 44.3687 230.702 45.0017C230.967 45.8534 232.46 45.6346 232.46 45.6346" stroke="#F7A794" stroke-width="0.5" stroke-miterlimit="10" stroke-linejoin="round"/>
<path d="M238.759 44.9863C238.236 45.9161 236.923 46.5803 235.485 46.7366C232.86 47.0257 229.914 45.8771 227.296 46.1584C226.71 46.2209 226.671 48.9246 226.687 49.7841C226.694 50.8078 226.913 51.8939 227.437 52.7769C227.945 53.6365 228.89 54.1444 229.828 54.4726C231.821 55.1524 233.969 55.1758 236.024 54.8242C237.033 54.6523 237.9 54.5507 238.775 54.0193C239.658 53.4802 240.463 52.8941 241.135 52.0971C241.893 51.1985 242.487 50.1045 243.479 49.4403C244.643 48.6589 245.894 48.7136 246.55 47.2523C246.949 46.3615 246.995 45.3613 247.042 44.3924C247.128 42.4779 247.105 40.5557 246.995 38.6256C246.714 33.9059 242.877 31.7648 239.009 31.2959C237.267 31.085 234.735 31.0225 232.985 30.9599C231.57 30.9131 229.625 30.3348 228.328 31.0459C226.062 32.2883 226.843 36.2266 229.132 36.9534C231.641 37.7426 235.532 36.8752 238.142 37.2034C239.963 37.43 239.955 40.0556 239.994 40.3681C240.205 42.1107 239.541 43.5953 238.759 44.9863Z" fill="#011E3B"/>
<path d="M233.063 48.6979L229.124 48.229C229.124 48.229 228.476 51.0655 230.851 51.2531C233.055 51.4328 233.063 48.6979 233.063 48.6979Z" fill="white"/>
<path d="M243.019 43.6889C243.464 43.8608 243.808 44.2437 244.035 44.6813C245.097 46.7599 242.62 49.5495 240.417 48.5962C239.604 48.2445 239.909 46.0878 241.503 44.0093C241.855 43.5483 242.573 43.517 243.019 43.6889Z" fill="#FFCBBB"/>
<path d="M276.58 87.3003C276.58 87.3003 279.855 104.429 282.269 110.196C284.684 115.97 297.897 115.415 297.897 115.415L293.693 126.957C293.693 126.957 271.704 129.059 267.032 121.331C260.382 110.321 260.702 90.6838 260.702 90.6838" fill="#FFCBBB"/>
<path d="M288.809 115.657C288.809 115.657 305.188 115.017 305.555 115.751C305.93 116.486 302.765 116.54 303.187 117.095C303.602 117.642 310.869 117.322 311.048 118.158C311.283 119.291 304.703 119.416 304.703 119.416C304.703 119.416 311.916 119.643 311.838 120.682C311.783 121.416 306.266 121.502 304.164 121.799C306.485 121.768 310.251 122.166 310.173 122.932C310.103 123.69 306.344 123.823 303.477 124.081C305.282 124.089 308.571 124.276 308.532 124.987C308.493 125.691 295.514 126.699 286.911 127.277" fill="#FFCBBB"/>
<path d="M246.254 58.5674C272.189 63.1308 278.464 90.1442 278.464 90.1442L260.015 96.1766L249.739 69.8822" fill="#FFB548"/>
<path d="M247.459 58.5674C247.459 58.5674 262.158 63.756 265.807 80.6891C269.456 97.6223 269.643 118.908 267.776 137.49C237.653 141.194 199.91 138.482 199.91 138.482C199.91 138.482 197.707 91.4882 207.982 77.0399C218.258 62.5916 228.932 59.2238 228.932 59.2238L238.645 62.8964L247.459 58.5674Z" fill="#FFB548"/>
<path d="M227.821 125.862H261.609V127.753H225.93C225.922 126.706 226.774 125.862 227.821 125.862Z" fill="#91A9D8"/>
<path d="M302.78 127.753H255.309L264.389 98.583C264.858 97.0905 266.241 96.0669 267.804 96.0669H310.727C311.68 96.0669 312.36 96.9889 312.079 97.9032L302.78 127.753Z" fill="#91A9D8"/>
<path d="M304.915 127.753H257.445L266.525 98.583C266.994 97.0905 268.377 96.0669 269.94 96.0669H312.862C313.816 96.0669 314.496 96.9889 314.214 97.9032L304.915 127.753Z" fill="#C7D2EF"/>
<path d="M288.368 114.711C290.115 114.242 291.252 112.825 290.909 111.545C290.566 110.266 288.871 109.608 287.125 110.076C285.378 110.545 284.241 111.962 284.584 113.242C284.927 114.522 286.621 115.179 288.368 114.711Z" fill="#91A9D8"/>
<path d="M218.975 93.3321C218.975 93.3321 212.794 107.632 213.818 110.156C214.842 112.68 241.3 114.477 241.3 114.477L240.464 127.519C240.464 127.519 210.849 127.753 198.033 127.753C181.764 127.753 196.846 88.4482 196.846 88.4482" fill="#FFCBBB"/>
<path d="M233.017 113.828C233.017 113.828 252.67 114.891 253.029 115.813C253.389 116.735 249.607 116.446 250.044 117.149C250.482 117.852 259.21 118.282 259.32 119.298C259.476 120.681 251.591 120.087 251.591 120.087C251.591 120.087 260.195 121.166 259.984 122.4C259.835 123.275 253.232 122.752 250.685 122.877C253.459 123.103 257.921 123.994 257.749 124.901C257.577 125.799 253.076 125.541 249.614 125.526C251.771 125.737 255.678 126.331 255.561 127.175C255.436 128.019 239.8 127.768 229.454 127.487" fill="#FFCBBB"/>
<path d="M229.446 59.7238C201.222 58.0047 194.275 91.1521 194.275 91.1521L219.882 96.1844L224.125 78.9309" fill="#FFB548"/>
<path d="M230.525 57.1455C233.729 60.3493 238.636 62.8967 238.636 62.8967C238.605 62.9826 237.027 66.0536 235.347 68.9526C235.347 68.9526 228.9 63.85 226.563 59.6695C226.563 59.6695 229.595 57.5518 230.525 57.1455Z" fill="white"/>
<path d="M238.638 62.8964L242.506 68.4366C242.506 68.4366 246.061 66.444 248.71 58.9737C248.71 58.9737 247.272 57.0358 245.78 56.2075C244.029 58.5361 238.638 62.8964 238.638 62.8964Z" fill="white"/>
<path d="M219.134 96.0364L224.104 82.9634" stroke="#E2690E" stroke-miterlimit="10"/>
<path d="M268.189 93.4338C266.822 83.9709 263.032 75.6489 263.032 75.6489" stroke="#E2690E" stroke-miterlimit="10"/>
<path d="M364.324 133.504V254.467" stroke="#114093" stroke-miterlimit="10"/>
<path d="M169.508 133.504V254.467" stroke="#114093" stroke-miterlimit="10"/>
<g opacity="0.55">
<path opacity="0.55" d="M316.344 115.392C316.344 115.392 316.813 115.306 317.001 115.04C317.392 114.493 316.743 113.915 316.321 113.641C315.774 113.297 315.032 113.172 314.766 112.508C314.469 111.75 314.985 110.922 315.602 110.508C316.126 110.164 316.743 109.984 317.329 109.765C317.985 109.523 318.65 109.125 319.033 108.507C319.509 107.742 319.415 106.757 319.478 105.89C319.72 102.506 323.182 100.834 326.096 100.764C327.55 100.732 329.777 101.248 330.746 102.381C331.074 102.764 331.316 103.209 331.41 103.702C331.551 104.467 331.262 105.171 330.761 105.741C330.261 106.312 329.574 106.648 329.027 107.163C328.464 107.695 328.863 108.257 328.738 108.89C328.597 109.593 328.12 109.898 327.511 110.234C326.222 110.953 324.698 111.133 323.291 111.524C322.854 111.649 322.408 111.797 322.057 112.078C321.596 112.446 321.338 113 320.986 113.477C320.353 114.344 319.392 114.962 318.337 115.173" fill="url(#paint0_linear_27_555)"/>
</g>
<path d="M324.449 123.901H321.691V122.581H324.449C325.34 122.581 326.067 121.854 326.067 120.963V118.689C326.067 117.798 325.34 117.079 324.449 117.079H321.691V115.759H324.449C326.067 115.759 327.38 117.072 327.38 118.689V120.963C327.38 122.588 326.067 123.901 324.449 123.901Z" fill="#E8EAEF"/>
<path d="M318.97 127.37H317.392C314.75 127.37 312.609 125.229 312.609 122.588V113.907H323.752V122.588C323.752 125.229 321.611 127.37 318.97 127.37Z" fill="#E8EAEF"/>
<path d="M310.804 125.487C310.804 125.487 310.914 128.105 314.985 128.105H321.377C325.448 128.105 325.557 125.487 325.557 125.487H310.804Z" fill="#CFDAE5"/>
<path d="M370.926 127.753H160.867V134.731H370.926V127.753Z" fill="#F0F6FF"/>
<path d="M332.471 127.738L330.174 127.753L320.008 97.3719C319.773 96.7937 320.188 96.1686 320.813 96.1608C321.414 96.153 321.961 96.5202 322.188 97.075L332.471 127.738Z" fill="#7D97D3"/>
<path d="M369.034 125.862H331.3V127.753H370.925C370.925 126.706 370.081 125.862 369.034 125.862Z" fill="#7D97D3"/>
<path d="M130.748 21.1778L131.647 30.164C131.647 30.164 130.928 32.7036 125.958 33.2584C119.934 33.9226 117.324 29.3357 117.324 29.3357L118.543 20.9902" fill="#F49C84"/>
<path d="M134.108 10.0584C134.108 10.0584 137.656 21.3185 132.624 24.28C128.06 26.9681 120.426 22.7797 119.98 21.3575C119.535 19.9354 117.511 7.80789 120.418 6.90146C125.583 5.29175 132.6 5.22143 134.108 10.0584Z" fill="#F49C84"/>
<path d="M131.068 25.4213C131.068 25.4213 126.286 26.6637 122.723 23.5146" stroke="#C45F47" stroke-width="0.75" stroke-miterlimit="10"/>
<path d="M137.397 3.6429C136.803 2.62707 135.788 1.84565 134.623 1.61123C133.514 1.39244 132.271 1.59561 131.31 0.993921C131.06 0.83764 130.849 0.634474 130.599 0.470378C129.802 -0.0531662 128.763 -0.107868 127.848 0.149997C126.934 0.407863 126.114 0.939217 125.364 1.52527C124.817 1.95505 124.27 2.4239 123.605 2.65051C122.394 3.06465 121.066 2.57237 119.792 2.70521C118.339 2.85368 117.018 3.89295 116.526 5.26823C116.026 6.67477 116.338 8.31573 115.612 9.62068C115.237 10.3005 114.604 10.8319 114.338 11.5586C113.978 12.5275 114.354 13.6137 114.854 14.5279C115.315 15.364 115.869 16.1533 116.135 17.0831C116.33 17.7708 116.432 18.4741 116.666 19.1539C117.112 20.4745 117.925 21.6622 119.425 21.795C119.956 21.8419 120.542 21.8732 120.98 21.5606C121.41 21.2481 121.558 20.6854 121.621 20.1619C121.722 19.3102 121.668 18.435 121.457 17.5989C121.972 17.8802 122.457 18.349 123.035 18.2631C123.223 18.2318 123.355 18.0834 123.488 17.9505C124.738 16.7003 123.316 14.6842 123.176 13.3871C123.012 11.9571 124.356 10.5506 125.786 10.6521C126.411 10.6912 127.012 10.9725 127.637 10.9178C128.856 10.8162 129.669 9.54255 130.857 9.2378C131.951 8.95649 133.107 9.26905 134.209 9.29249C136.116 9.33156 137.843 7.61246 137.921 5.70582C137.96 4.97911 137.757 4.26803 137.397 3.6429Z" fill="#173789"/>
<path d="M122.166 17.4038C121.736 16.3489 120.986 15.0674 119.814 15.7863C119.4 16.0441 119.165 16.5833 119.009 17.1069C118.47 18.8572 119.728 21.5531 121.439 21.303C122.275 21.178 122.736 20.1856 123.08 19.373" fill="#F49C84"/>
<path d="M130.754 14.5518C130.754 14.5518 132.34 17.4195 132.075 18.0134C131.715 18.8104 130.301 18.4354 130.301 18.4354" stroke="#C45F47" stroke-width="0.75" stroke-miterlimit="10"/>
<path d="M129.504 20.4357L133.302 19.9746C133.302 19.9746 133.583 22.6627 131.879 23.069C129.777 23.5691 129.504 20.4357 129.504 20.4357Z" fill="white"/>
<path d="M133.114 13.9419C133.153 14.1763 133.207 14.4107 133.278 14.6373C133.387 15.0202 133.981 14.8561 133.871 14.4732C133.809 14.2466 133.723 14.02 133.637 13.8012C133.504 13.4809 133.059 13.5981 133.114 13.9419Z" fill="#00276F"/>
<path d="M132.387 12.5902C132.387 12.5902 133.184 11.4884 134.364 12.3324" stroke="#00276F" stroke-width="0.5" stroke-miterlimit="10" stroke-linecap="round" stroke-linejoin="round"/>
<path d="M126.83 15.3172C126.862 15.575 126.901 15.8407 126.963 16.0907C127.049 16.4736 127.643 16.3174 127.557 15.9267C127.502 15.6922 127.44 15.4656 127.362 15.2468C127.26 14.9811 126.791 14.9968 126.83 15.3172Z" fill="#00276F"/>
<path d="M127.63 13.1764C127.63 13.1764 126.333 12.7466 125.013 14.2938" stroke="#00276F" stroke-width="0.5" stroke-miterlimit="10" stroke-linecap="round" stroke-linejoin="round"/>
<path d="M136.027 216.483L139.247 242.371L139.02 250.865L172.316 250.693C173.129 250.686 173.785 250.029 173.777 249.217C173.777 248.607 173.394 248.06 172.824 247.849L158.462 241.246L156.555 214.264" fill="#F49C84"/>
<path d="M175.144 250.342C174.801 249.279 174.176 248.076 173.55 247.81L158.329 241.254C149.936 244.654 139.075 242.059 139.075 242.059L137.137 253.523C137.137 253.905 137.449 254.21 137.824 254.202H174.894C175.629 254.195 175.152 250.373 175.144 250.342Z" fill="#2B88F7"/>
<path d="M161.619 241.903C160.767 243.013 160.04 244.224 159.47 245.506" stroke="#1340BF" stroke-width="0.75" stroke-miterlimit="10"/>
<path d="M163.532 243.051C162.649 244.278 162.297 244.981 161.766 246.114" stroke="#1340BF" stroke-width="0.75" stroke-miterlimit="10"/>
<path d="M165.157 243.888C164.555 244.693 163.969 245.81 163.5 246.701" stroke="#1340BF" stroke-width="0.75" stroke-miterlimit="10"/>
<path d="M137.325 251.717L175.301 251.522" stroke="#1340BF" stroke-width="0.75" stroke-miterlimit="10"/>
<path d="M138.379 246.114C138.379 246.114 147.303 246.294 148.068 251.67" stroke="#1340BF" stroke-width="0.75" stroke-miterlimit="10"/>
<path d="M170.426 246.459C170.426 246.459 167.965 249.952 167.48 251.569" stroke="#1340BF" stroke-width="0.75" stroke-miterlimit="10"/>
<path d="M151.658 105.054C157.167 144.656 161.371 238.199 161.371 238.199H131.091C131.091 238.199 126.324 169.364 121.409 126.449C113.228 110.415 109.938 99.3734 111.4 92.6455" fill="#223082"/>
<path d="M134.998 238.206C134.998 238.206 130.231 169.372 125.316 126.457" stroke="#0D1735" stroke-width="0.75" stroke-miterlimit="10"/>
<path d="M94.8486 216.483L92.9576 242.371L92.731 250.865L126.027 250.693C126.839 250.686 127.496 250.029 127.488 249.217C127.488 248.607 127.105 248.06 126.535 247.849L112.172 241.246L115.376 214.264" fill="#F49C84"/>
<path d="M128.863 250.342C128.519 249.279 127.894 248.076 127.269 247.81L112.047 241.254C103.655 244.654 92.7934 242.059 92.7934 242.059L90.8555 253.523C90.8555 253.905 91.168 254.21 91.5431 254.202H128.613C129.348 254.195 128.871 250.373 128.863 250.342Z" fill="#2B88F7"/>
<path d="M115.337 241.902C114.486 243.012 113.759 244.223 113.188 245.505" stroke="#1340BF" stroke-width="0.75" stroke-miterlimit="10"/>
<path d="M117.251 243.051C116.368 244.278 116.016 244.981 115.485 246.114" stroke="#1340BF" stroke-width="0.75" stroke-miterlimit="10"/>
<path d="M118.868 243.888C118.266 244.693 117.68 245.81 117.211 246.701" stroke="#1340BF" stroke-width="0.75" stroke-miterlimit="10"/>
<path d="M91.0435 251.717L129.02 251.522" stroke="#1340BF" stroke-width="0.75" stroke-miterlimit="10"/>
<path d="M92.0977 246.114C92.0977 246.114 101.021 246.294 101.787 251.67" stroke="#1340BF" stroke-width="0.75" stroke-miterlimit="10"/>
<path d="M124.145 246.458C124.145 246.458 121.684 249.951 121.199 251.568" stroke="#1340BF" stroke-width="0.75" stroke-miterlimit="10"/>
<path d="M93.1612 101.39C90.6763 108.18 90.0902 120.175 92.7939 131.669C92.9736 132.443 93.0596 133.232 93.0205 134.021C90.6607 181.57 88.2305 238.199 88.2305 238.199H118.143C118.143 238.199 129.426 120.081 131.646 100.522" fill="#223082"/>
<path d="M97.8496 101.39C95.3648 108.18 94.7787 120.175 97.4824 131.669C97.6621 132.443 97.7481 133.232 97.709 134.021C95.3491 181.57 92.9189 238.199 92.9189 238.199" stroke="#0D1735" stroke-width="0.75" stroke-miterlimit="10"/>
<path d="M125.23 164.645C125.23 164.645 129.793 118.291 131.2 107.281" stroke="#0D1735" stroke-width="0.75" stroke-miterlimit="10"/>
<path d="M96 122.48C96 122.48 104.408 120.768 108.776 112.188" stroke="#0D1735" stroke-width="0.75" stroke-miterlimit="10"/>
<path d="M129.708 120.612C129.708 120.612 132.638 120.144 132.95 119.05C133.263 117.956 134.826 108.352 134.826 108.352" stroke="#0D1735" stroke-width="0.75" stroke-miterlimit="10"/>
<path d="M144.328 110.157C144.328 110.157 146.312 119.596 153.431 119.948" stroke="#0D1735" stroke-width="0.75" stroke-miterlimit="10"/>
<path d="M88.4727 232.564H118.682" stroke="#0D1735" stroke-width="0.75" stroke-miterlimit="10"/>
<path d="M130.685 232.564H161.105" stroke="#0D1735" stroke-width="0.75" stroke-miterlimit="10"/>
<path d="M159.004 51.9577C159.004 51.9577 165.716 62.2489 168.201 62.5224C172.147 62.9522 191.323 48.4727 191.323 48.4727L201.067 59.6546C201.067 59.6546 182.688 81.3231 167.505 82.2843C155.565 83.0422 141.266 64.1087 141.266 64.1087" fill="#F49C84"/>
<path d="M185.273 52.8797C185.273 52.8797 201.769 40.0724 202.597 40.3302C203.426 40.5881 201.152 43.0183 201.871 43.1042C202.589 43.1902 207.817 37.8297 208.575 38.3142C209.607 38.9706 204.23 44.081 204.23 44.081C204.23 44.081 210.482 38.8299 211.208 39.6504C211.724 40.2365 205.59 46.097 205.59 46.097C205.59 46.097 211.787 41.5727 212.31 42.19C212.826 42.7995 207.356 48.0115 207.356 48.0115C207.356 48.0115 211.654 44.2373 212.349 44.8702C213.045 45.5031 203.902 57.193 195.963 65.1009" fill="#F49C84"/>
<path d="M200.699 43.8154C200.699 43.8154 199.504 46.8004 197.996 49.0978" stroke="#C45F47" stroke-width="0.75" stroke-miterlimit="10"/>
<path d="M200.02 50.5043C201.778 48.7071 204.115 48.3945 206.31 48.4961" stroke="#C45F47" stroke-width="0.75" stroke-miterlimit="10"/>
<path d="M117.503 28.2031C117.503 28.2031 119.902 31.235 124.388 31.6179C128.873 32.0008 131.647 29.6175 131.647 29.6175C131.647 29.6175 145.83 36.7674 149.838 66.5625C153.847 96.3577 154.23 111.947 154.23 111.947H90.8418C90.8418 111.947 82.8949 37.3534 117.503 28.2031Z" fill="#2B88F7"/>
<path d="M131.637 29.6172C135.653 29.6172 141.506 31.2034 145.319 33.9228C153.493 39.7443 155.993 46.4956 163.604 56.8415L145.249 69.7973L131.637 29.6172Z" fill="#2B88F7"/>
<path d="M120.025 129.482L92.5352 116.073L110.476 78.9946L137.959 92.4036L120.025 129.482Z" fill="#FFEFAB"/>
<path d="M131.871 90.6144L116.431 83.0816L117.454 80.9875C117.611 80.6671 117.993 80.5342 118.314 80.6905L132.598 87.6607C132.918 87.817 133.051 88.1999 132.895 88.5202L131.871 90.6144Z" fill="#173789"/>
<path d="M127.138 80.7293C125.848 80.1042 124.34 80.5574 123.754 81.753C123.176 82.9485 123.746 84.4176 125.028 85.0505C126.317 85.6756 127.825 85.2224 128.411 84.0269C128.997 82.8313 128.427 81.3544 127.138 80.7293ZM125.59 83.9097C124.981 83.6127 124.707 82.9173 124.989 82.3468C125.262 81.7842 125.981 81.5654 126.591 81.8624C127.2 82.1593 127.474 82.8548 127.192 83.4252C126.919 83.9878 126.2 84.2066 125.59 83.9097Z" fill="#173789"/>
<path d="M103.383 66.8592C103.383 66.8592 97.991 78.7992 97.6394 82.1514C97.2877 85.5037 118.995 95.5917 118.995 95.5917L113.33 108.985C113.33 108.985 78.6042 100.468 75.4239 90.0281C72.2435 79.5962 83.3552 57.959 83.3552 57.959" fill="#F49C84"/>
<path d="M107.908 89.9731C107.908 89.9731 128.31 99.2329 128.389 100.311C128.459 101.39 124.614 99.8502 124.841 100.725C125.068 101.601 134.015 104.914 133.796 106.015C133.507 107.5 126.201 104.296 126.201 104.296C126.201 104.296 134.093 108.243 133.468 109.462C133.022 110.321 126.318 107.61 123.63 106.898C126.451 108.047 130.795 110.446 130.319 111.329C129.842 112.204 125.24 110.462 121.637 109.305C123.817 110.235 127.693 112.142 127.287 112.978C126.88 113.814 110.682 108.414 99.9922 104.718" fill="#F49C84"/>
<path d="M117.503 28.203C108.431 28.0545 99.5226 30.7973 94.4668 35.6029C86.8794 42.8154 79.9014 60.8425 79.9014 60.8425L104.125 70.2194L114.674 49.6918" fill="#2B88F7"/>
<path d="M102.438 69.7973L110.603 55.6538" stroke="#273B7A" stroke-width="0.75" stroke-miterlimit="10"/>
<path d="M104.743 65.8042L81.4097 56.3726" stroke="#273B7A" stroke-width="0.75" stroke-miterlimit="10"/>
<path d="M149.931 66.3594C148.884 58.0139 146.602 47.3242 146.602 47.3242" stroke="#273B7A" stroke-width="0.75" stroke-miterlimit="10"/>
<path d="M149.355 62.2571L161.374 53.9351" stroke="#273B7A" stroke-width="0.75" stroke-miterlimit="10"/>
<path d="M19.1696 179.256C17.8022 180.475 16.4035 181.733 15.5439 183.351C14.6843 184.968 14.4499 187.055 15.4423 188.594C15.7861 189.133 16.2628 189.579 16.7785 189.969C18.4117 191.212 20.5137 191.892 22.5531 191.618C24.5848 191.345 26.5071 190.048 27.3354 188.172C27.8198 187.07 27.9214 185.844 28.2418 184.687C29.2029 181.21 32.5161 178.373 36.1262 178.467" fill="#86ADA8"/>
<path d="M48.9166 191.181C45.9863 193.712 40.7978 193.517 37.6252 191.548C33.2181 188.813 30.8973 183.828 26.0369 181.577C24.2241 180.741 22.1533 180.35 20.2389 180.897C18.2932 181.46 16.7147 182.921 14.9253 183.898C18.5901 175.568 28.4437 172.13 32.3273 172.146C39.5553 172.177 46.5724 177.006 49.4714 183.96C50.4638 186.344 50.8311 189.532 48.9166 191.181Z" fill="#BCDDCB"/>
<path d="M83.0742 162.253C85.7701 161.276 88.8488 160.964 91.4353 162.183C92.8731 162.863 94.0608 163.964 95.3111 164.941C97.5772 166.715 100.593 168.176 103.25 167.074C105.688 166.066 106.892 163.019 106.251 160.464C105.61 157.909 103.43 155.916 100.961 154.994C98.4914 154.064 95.7565 154.08 93.1466 154.463" fill="#86ADA8"/>
<path d="M62.4667 169.957C56.8249 167.199 57.3719 159.401 57.6532 154.548C58.0986 146.796 58.3955 138.912 60.1928 131.332C62.6308 121.08 69.3118 111.18 80.7204 109.336C84.057 108.796 87.5733 108.57 90.8162 109.601C94.0591 110.633 96.9581 113.18 97.3801 116.306C97.4816 117.04 97.4347 117.83 97.0206 118.455C96.5283 119.197 95.6141 119.58 94.7701 119.971C86.4872 123.729 80.1578 130.887 77.7979 139.17C76.1257 145.046 76.3836 151.313 74.7973 157.205C73.2189 163.097 68.9836 169.028 62.4667 169.957Z" fill="#BCDDCB"/>
<path d="M69.1626 189.008C78.5317 189.149 78.4301 180.631 80.7197 177.717C84.7283 172.606 85.1581 165.527 88.8385 160.182C91.425 156.431 94.8554 154.142 99.286 154.446C97.3559 152.993 81.2666 151.493 77.805 153.524C73.9214 155.806 71.9054 158.588 70.0925 162.62C68.0217 167.23 60.4811 184.343 69.1626 189.008Z" fill="#D6E8DD"/>
<path d="M95.2702 153.54C73.6642 152.016 69.851 181.397 67.7177 196.814C66.8113 203.355 65.9908 209.903 65.1312 216.451C65.1 216.67 65.4751 216.725 65.5141 216.506C67.999 202.714 68.4835 188.547 72.5234 175.044C75.7584 164.23 82.6036 153.227 95.2624 153.79C95.4265 153.798 95.4265 153.556 95.2702 153.54Z" fill="#BCDDCB"/>
<path d="M49.9483 166.933C46.3694 166.644 43.5173 163.659 42.0482 160.385C38.6413 152.813 39.2898 144.116 34.4763 137.083C31.9758 133.434 28.5689 130.488 25.8808 126.98C22.0676 122.018 20.2 114.969 23.1225 109.164C27.5296 100.412 36.8675 104.381 42.5405 109.484C50.3858 116.548 56.8637 126.847 58.661 136.896C59.8331 143.491 61.6538 160.018 49.9483 166.933Z" fill="#D6E8DD"/>
<path d="M29.1866 112.102C34.3282 112.368 38.4385 118.509 40.6811 122.526C43.8146 128.136 45.3227 134.872 46.5964 141.123C49.472 155.314 50.1987 170.012 50.8941 184.453C51.2927 192.814 51.5114 201.175 51.6521 209.544C51.6599 209.825 52.0897 209.825 52.0897 209.544C52.1288 193.611 51.3239 177.654 49.933 161.784C49.3001 154.571 48.4639 147.367 46.9793 140.279C45.6509 133.95 44.0412 127.191 40.7124 121.58C38.3759 117.65 34.297 111.93 29.2022 111.781C28.9678 111.758 28.9756 112.094 29.1866 112.102Z" fill="#BCDDCB"/>
<path d="M18.3481 148.289C14.8786 148.078 8.97898 148.843 5.73613 150.125C4.37647 151.172 1.92285 153.321 0.641335 156.634C-0.640177 159.947 -0.00723488 164.112 2.59486 166.464C4.6109 168.285 7.46304 168.832 10.1433 168.668C11.4482 168.59 12.7844 168.34 13.9097 167.652C16.7774 165.909 17.4416 162.041 19.0592 159.049C21.2706 154.962 25.748 152.282 30.3037 152.321" fill="#86ADA8"/>
<path d="M7.8791 161.971C8.02757 158.338 8.49641 154.618 10.9422 151.751C14.0054 148.164 18.1546 147.242 22.6321 146.875C22.765 146.867 22.8197 146.656 22.6634 146.624C18.3812 145.656 13.5052 147.937 10.6922 151.133C8.01975 154.165 7.5431 158.088 7.44933 161.979C7.44151 162.245 7.86347 162.245 7.8791 161.971Z" fill="#3F6D54"/>
<path d="M5.73438 150.117C12.0794 148.937 18.8308 151.531 23.3395 156.259C25.465 158.486 27.4966 161.354 30.5207 161.627C33.6463 161.908 37.5846 162.198 37.694 155.649C37.78 150.68 34.7716 149.398 32.1382 147.663C29.497 145.929 26.3089 145.296 23.1833 145.061C19.5263 144.788 10.626 145.046 5.73438 150.117Z" fill="#BCDDCB"/>
<path d="M13.128 145.968C23.5441 146.179 32.0303 153.251 36.2108 162.48C39.7193 170.239 40.8758 179.069 41.7276 187.453C42.5559 195.603 42.6496 203.777 43.181 211.943C43.1966 212.169 43.5404 212.177 43.5404 211.943C43.6967 204.16 43.1185 196.26 42.3683 188.524C41.8526 183.265 41.1649 178.006 40.0163 172.849C38.4613 165.879 35.9686 159.205 31.0613 153.876C26.365 148.781 20.0981 145.742 13.128 145.703C12.956 145.703 12.956 145.96 13.128 145.968Z" fill="#8EBCA1"/>
<path d="M27.1068 175.381C31.3577 174.904 35.6632 175.334 39.2343 177.873C42.5474 180.233 44.7901 183.882 46.0794 187.68C48.6581 195.275 49.2988 203.363 48.2595 211.286C48.2361 211.443 48.5018 211.482 48.5409 211.325C50.2834 203.183 49.1191 193.376 45.7825 185.726C44.3212 182.366 42.0473 179.256 38.9451 177.24C35.3975 174.935 31.1701 174.63 27.0833 175.232C27.0052 175.24 27.0286 175.388 27.1068 175.381Z" fill="#8EBCA1"/>
<path d="M84.1428 114.039C78.6417 117.032 74.8831 122.721 72.0466 128.136C68.9366 134.051 66.8502 140.459 65.3499 146.96C61.9429 161.76 60.5989 177.248 59.9894 192.391C59.63 201.385 59.5049 210.458 60.1457 219.444C60.1613 219.616 60.4114 219.616 60.4114 219.444C60.0988 204.238 60.1613 189.149 61.6616 173.989C63.0603 159.908 64.7482 145.21 70.4681 132.121C73.4062 125.409 77.6102 117.837 84.1975 114.133C84.26 114.094 84.2053 114.008 84.1428 114.039Z" fill="#8EBCA1"/>
<path d="M32.9917 207.825V215.357C32.9917 245.223 43.4548 253.717 43.4548 253.717H66.4986C66.4986 253.717 76.9616 245.223 76.9616 215.357V207.825H32.9917Z" fill="#F2F5F9"/>
<path d="M367.739 28.71L368.81 35.5395C368.81 35.5395 368.943 39.6966 373.631 39.2199C378.57 38.7198 382.602 33.8282 382.602 33.8282L378.226 21.5757" fill="#AF5743"/>
<path d="M366.067 12.1521C363.105 15.4184 358.979 28.6477 364.598 30.8903C369.739 32.9454 376.968 30.9606 378.898 23.2169C380.914 15.0824 373.85 3.5566 366.067 12.1521Z" fill="#AF5743"/>
<path d="M368.388 31.8746C368.388 31.8746 372.74 32.2966 376.092 28.9443" stroke="#752D21" stroke-width="0.75" stroke-miterlimit="10"/>
<path d="M378.244 22.3185C378.228 22.342 378.213 22.3656 378.197 22.3891C378.165 22.4283 378.236 22.4675 378.267 22.4283C378.283 22.4048 378.299 22.3813 378.314 22.3577C378.338 22.3185 378.275 22.2793 378.244 22.3185Z" fill="#FF855A"/>
<path d="M366.529 20.1377C366.529 20.1377 364.685 22.7163 364.873 23.318C365.123 24.1229 366.529 23.9197 366.529 23.9197" stroke="#752D21" stroke-width="0.75" stroke-miterlimit="10"/>
<path d="M369.755 20.966C369.693 21.2473 369.818 21.5208 370.029 21.5677C370.248 21.6146 370.466 21.4271 370.537 21.1379C370.599 20.8566 370.474 20.5831 370.263 20.5363C370.045 20.4894 369.818 20.6847 369.755 20.966Z" fill="#4A1A1A"/>
<path d="M363.802 18.9577C363.74 19.239 363.865 19.5125 364.076 19.5594C364.295 19.6063 364.513 19.4187 364.576 19.1296C364.638 18.8483 364.513 18.5748 364.302 18.528C364.091 18.4811 363.865 18.6764 363.802 18.9577Z" fill="#4A1A1A"/>
<path d="M367.224 26.0378L363.614 25.0298C363.614 25.0298 363.161 27.6006 364.786 28.1085C366.778 28.7259 367.224 26.0378 367.224 26.0378Z" fill="white"/>
<path d="M376.391 24.5763C372.21 20.3958 373.718 16.8013 373.718 16.8013C373.718 16.8013 364.271 16.5121 360.849 13.0896C360.849 13.0896 363.334 5.50209 369.968 8.34642C373.742 6.3929 379.728 8.29953 382.158 12.2613C385.955 18.4344 382.119 25.3421 379.853 26.608" fill="#011E3B"/>
<path d="M378.852 11.441C378.227 10.347 378.798 8.61229 379.368 7.83089C380.423 6.37746 382.58 5.86954 384.197 6.66658C385.807 7.46362 386.713 9.45621 386.291 11.2066C385.877 12.9569 384.205 14.3166 382.408 14.4104C381.697 14.4494 380.892 14.2384 380.556 13.6211" fill="#011E3B"/>
<path d="M374.563 22.3891C374.555 22.1234 374.867 21.3576 375.664 21.0685C377.071 20.5606 377.93 22.4047 377.766 23.8737C377.665 24.7958 377.36 25.5147 376.766 26.2258C375.985 27.1635 374.953 27.3667 374.391 26.2102" fill="#AF5743"/>
<path d="M369.739 18.5207C371.99 18.3722 372.412 20.6227 372.412 20.6227" stroke="#4A1A1A" stroke-width="0.5" stroke-miterlimit="10" stroke-linecap="round"/>
<path d="M363.739 17.1687C364.974 16.6061 366.216 17.5282 366.216 17.5282" stroke="#4A1A1A" stroke-width="0.5" stroke-miterlimit="10" stroke-linecap="round"/>
<path d="M380.285 137.193L370.354 242.355L362.688 250.982C362.688 250.982 388.959 249.88 389.819 249.005C390.686 248.122 389.483 242.136 389.483 242.136L407.142 136.146L380.285 137.193Z" fill="#AF5743"/>
<path d="M385.568 248.95L390.319 245.019L389.748 242.964L382.864 248.966L379.918 248.989L367.955 243.902L355.148 250.997C353.85 251.818 354.436 253.826 355.976 253.818L374.245 253.709L379.066 250.325L380.442 250.317L380.465 253.662L390.327 253.592L390.295 248.919L385.568 248.95Z" fill="#011E3B"/>
<path d="M410.806 137.193L415.51 242.355L407.845 250.982C407.845 250.982 434.116 249.88 434.975 249.005C435.843 248.122 434.639 242.136 434.639 242.136L437.663 136.146L410.806 137.193Z" fill="#AF5743"/>
<path d="M430.717 248.95L435.468 245.02L434.897 242.965L428.013 248.966L425.067 248.99L413.104 243.903L400.296 250.998C398.999 251.818 399.585 253.826 401.125 253.819L419.394 253.709L424.215 250.326L425.591 250.318L425.614 253.662L435.476 253.592L435.444 248.919L430.717 248.95Z" fill="#011E3B"/>
<path d="M421.435 84.4551C424.975 86.9243 428.522 90.1359 431.937 95.5823C442.932 113.086 439.97 155.516 439.97 155.516H372.089C372.089 155.516 378.715 101.38 382.935 89.2842" fill="#223082"/>
<path d="M407.848 78.126C407.848 78.126 420.632 87.6123 428.305 99.5132C437.26 113.407 436.564 155.525 436.564 155.525" stroke="#121E3A" stroke-width="0.75" stroke-miterlimit="10"/>
<path d="M406.215 91.5425C414.998 99.3097 422.21 91.5425 422.21 91.5425" stroke="#121E3A" stroke-width="0.75" stroke-miterlimit="10"/>
<path d="M360.857 66.4683C360.857 66.4683 345.025 86.152 336.102 83.8312C327.178 81.5104 313.707 51.8793 313.707 51.8793L324.146 47.3159C324.146 47.3159 335.953 62.7644 337.665 62.8425C339.376 62.9207 350.644 50.465 350.644 50.465" fill="#AF5743"/>
<path d="M326.912 50.8555C326.912 50.8555 317.973 37.7903 317.301 37.7903C316.621 37.7903 317.746 40.1267 317.191 40.0251C316.637 39.9235 314.003 34.7115 313.324 34.8913C312.409 35.1335 314.925 39.7751 314.925 39.7751C314.925 39.7751 314.207 38.8921 313.472 39.3297C312.948 39.6422 313.378 41.0488 313.378 41.0488C313.378 41.0488 312.605 40.5096 312.073 40.8534C311.542 41.1894 311.956 42.4006 311.956 42.4006C311.956 42.4006 311.237 41.3926 310.628 42.1349C310.057 42.8304 312.409 49.8162 316.457 57.56" fill="#AF5743"/>
<path d="M317.769 41.1816C317.769 41.1816 317.964 43.6822 318.543 45.7451" stroke="#752D21" stroke-width="0.75" stroke-miterlimit="10"/>
<path d="M310.738 43.6975C311.121 44.2757 311.512 44.8461 311.942 45.3931C312.153 45.6666 312.371 45.9323 312.614 46.1745C312.731 46.2917 312.856 46.4089 312.981 46.4949C313.114 46.6121 313.247 46.6043 313.247 46.5965C313.278 46.5652 313.293 46.3777 313.27 46.2292C313.247 46.0729 313.208 45.9089 313.168 45.7448C313.075 45.4166 312.965 45.0962 312.84 44.7758C312.598 44.135 312.309 43.5021 312.028 42.8848L312.481 42.666C312.84 43.3536 313.223 44.0335 313.637 44.682C313.848 45.0024 314.067 45.3228 314.302 45.6041C314.419 45.7369 314.552 45.8776 314.661 45.9401C314.723 45.9792 314.739 45.9557 314.669 45.9714C314.598 46.0261 314.638 46.0104 314.638 45.9323C314.669 45.651 314.583 45.2447 314.505 44.8774C314.419 44.5023 314.317 44.135 314.208 43.76C313.989 43.0176 313.731 42.2753 313.465 41.5564L313.95 41.3532C314.262 42.0799 314.622 42.7988 314.989 43.5021C315.177 43.8537 315.372 44.1976 315.591 44.5101C315.7 44.6664 315.825 44.8149 315.95 44.9243C316.013 44.9712 316.075 45.0024 316.083 45.0024C316.067 45.0102 316.091 45.018 316.114 44.9321C316.177 44.6117 316.099 44.1898 316.036 43.8147C315.966 43.424 315.88 43.0333 315.786 42.6504C315.591 41.8768 315.364 41.1032 315.138 40.3374C315.458 41.0797 315.731 41.8299 315.989 42.5957C316.114 42.9786 316.239 43.3615 316.333 43.76C316.411 44.1663 316.529 44.5414 316.466 45.0259C316.45 45.1353 316.357 45.3541 316.138 45.3775C315.942 45.3931 315.825 45.3072 315.724 45.2447C315.536 45.0962 315.403 44.9399 315.27 44.7758C315.013 44.4476 314.794 44.096 314.591 43.7522C314.176 43.0489 313.825 42.3222 313.481 41.5877L313.965 41.3845C314.255 42.119 314.52 42.8614 314.755 43.6193C314.872 43.9944 314.981 44.3773 315.075 44.768C315.161 45.1665 315.263 45.5416 315.208 46.0417C315.185 46.1589 315.169 46.3543 314.911 46.5027C314.661 46.6043 314.466 46.5027 314.364 46.4402C314.137 46.2996 314.005 46.1355 313.872 45.9792C313.606 45.6588 313.387 45.3228 313.176 44.9868C312.754 44.307 312.387 43.6193 312.028 42.9082L312.481 42.6894C312.77 43.3302 313.012 43.9866 313.231 44.6508C313.34 44.9868 313.442 45.3228 313.52 45.6744C313.559 45.8463 313.59 46.0261 313.606 46.2136C313.606 46.4011 313.669 46.5965 313.473 46.8465C313.356 46.9637 313.168 46.9481 313.075 46.9169C312.965 46.8778 312.879 46.8231 312.801 46.7606C312.645 46.6434 312.528 46.5105 312.41 46.3777C312.176 46.1042 311.981 45.8229 311.785 45.526C311.402 44.9165 311.059 44.3148 310.738 43.6975Z" fill="#752D21"/>
<path d="M368.938 34.4224C358.257 34.4224 345.074 54.3952 345.074 54.3952L361.359 69.6249L384.121 45.5887" fill="#B9B5B2"/>
<path d="M384.064 32.3205C384.064 32.3205 393.465 31.8908 399.513 36.0869C410.742 43.8854 421.431 84.4562 421.431 84.4562C410.164 96.1773 382.087 100.67 382.087 100.67C382.087 100.67 373.351 84.8469 366.787 78.2831C360.224 71.7192 358.372 65.4132 361.075 51.9652L384.064 32.3205Z" fill="#B9B5B2"/>
<path d="M381.009 29.3589L373.632 37.9075L378.196 42.8226C378.196 42.8226 381.431 37.3058 384.064 32.3282L381.009 29.3589Z" fill="white"/>
<path d="M373.634 37.9072L369.321 42.7597C369.321 42.7597 366.992 38.7355 366.531 34.7268L368.493 33.4531L373.634 37.9072Z" fill="white"/>
<path d="M360.38 68.3666C359.004 62.506 361.364 52.3164 361.364 52.3164" stroke="#846A6A" stroke-width="0.75" stroke-miterlimit="10"/>
<path d="M400.632 67.7578C391.247 103.179 378.08 125.426 378.08 125.426L366.648 120.401C378.229 84.0111 381.37 62.9912 381.37 62.9912" fill="#AF5743"/>
<path d="M382.489 47.3081L378.621 65.4603L401.688 69.5861C401.688 69.5861 404.056 61.3735 405.064 53.9657" fill="#B9B5B2"/>
<path d="M401.367 69.6255L404.375 57.5449" stroke="#846A6A" stroke-width="0.75" stroke-miterlimit="10"/>
<path d="M378.621 65.4605L381.09 53.1299" stroke="#846A6A" stroke-width="0.75" stroke-miterlimit="10"/>
<path d="M384.121 113.627C384.121 113.627 378.471 127.544 376.096 127.544C373.72 127.544 352.872 127.676 346.848 127.676C346.965 126.598 351.95 124.441 356.178 123.144C358.702 122.371 366.649 120.401 366.649 120.401L371.079 105.875" fill="#AF5743"/>
<defs>
<linearGradient id="paint0_linear_27_555" x1="323.062" y1="115.39" x2="323.062" y2="100.764" gradientUnits="userSpaceOnUse">
<stop stop-color="white" stop-opacity="0.1"/>
<stop offset="1" stop-color="white" stop-opacity="0.4"/>
</linearGradient>
</defs>
</svg>
