<svg width="36" height="26" viewBox="0 0 36 26" fill="none" xmlns="http://www.w3.org/2000/svg">
<path d="M33.0646 4.13542H9.31114V3.37921C9.31114 1.51591 7.79523 0 5.93193 0H5.6744C3.8111 0 2.29519 1.51591 2.29519 3.37921V4.13542H2.09615C0.940235 4.13542 0 5.07566 0 6.2313V23.2419C0 24.3978 0.940235 25.338 2.09615 25.338H33.0646C34.2205 25.338 35.1608 24.3978 35.1608 23.2419V6.2313C35.1608 5.07566 34.2205 4.13542 33.0646 4.13542V4.13542ZM4.39107 3.37921C4.39107 2.67182 4.96675 2.09615 5.6744 2.09615H5.93193C6.63959 2.09615 7.21526 2.67182 7.21526 3.37921V4.13542H4.39107V3.37921ZM33.0646 23.2419H2.09615V6.2313H33.0646L33.0659 23.2419C33.0659 23.2419 33.0657 23.2419 33.0646 23.2419Z" fill="#4F4F4F"/>
<path d="M25.3602 8.48047C21.6725 8.48047 18.6724 11.4806 18.6724 15.1683C18.6724 18.856 21.6725 21.8559 25.3602 21.8559C29.0479 21.8559 32.0481 18.856 32.0481 15.1683C32.0481 11.4806 29.0479 8.48047 25.3602 8.48047ZM25.3602 19.7601C22.8282 19.7601 20.7682 17.7004 20.7682 15.1683C20.7682 12.6365 22.8282 10.5766 25.3602 10.5766C27.892 10.5766 29.952 12.6365 29.952 15.1683C29.952 17.7004 27.892 19.7601 25.3602 19.7601Z" fill="#4F4F4F"/>
<path d="M13.5437 8.04883H5.80296C5.22406 8.04883 4.75488 8.51801 4.75488 9.0969V12.3267C4.75488 12.9056 5.22406 13.3748 5.80296 13.3748H13.5437C14.1226 13.3748 14.5918 12.9056 14.5918 12.3267V9.0969C14.5918 8.51801 14.1226 8.04883 13.5437 8.04883V8.04883ZM12.4959 11.2786H6.85103V10.145H12.4957V11.2786H12.4959Z" fill="#4F4F4F"/>
<path d="M5.80296 18.2172H10.4035C10.9824 18.2172 11.4516 17.7478 11.4516 17.1692C11.4516 16.5903 10.9824 16.1211 10.4035 16.1211H5.80296C5.22406 16.1211 4.75488 16.5903 4.75488 17.1692C4.75488 17.7478 5.22406 18.2172 5.80296 18.2172Z" fill="#4F4F4F"/>
<path d="M12.3205 19.3281H5.80296C5.22406 19.3281 4.75488 19.7976 4.75488 20.3762C4.75488 20.9551 5.22406 21.4243 5.80296 21.4243H12.3205C12.8994 21.4243 13.3686 20.9551 13.3686 20.3762C13.3686 19.7976 12.8994 19.3281 12.3205 19.3281Z" fill="#4F4F4F"/>
</svg>
