<svg width="26" height="32" viewBox="0 0 26 32" fill="none" xmlns="http://www.w3.org/2000/svg">
<path d="M22.7819 0H2.72655C1.22313 0 0 1.22313 0 2.72655V28.2956C0 29.799 1.22313 31.0221 2.72655 31.0221H22.7819C24.2853 31.0221 25.5084 29.799 25.5084 28.2956V2.72655C25.5084 1.22313 24.2853 0 22.7819 0ZM2.72655 1.8177H22.7819C23.283 1.8177 23.6907 2.22541 23.6907 2.72655V7.3314H1.8177V2.72655C1.8177 2.22541 2.22541 1.8177 2.72655 1.8177ZM22.7819 29.2044H2.72655C2.22541 29.2044 1.8177 28.7967 1.8177 28.2956V9.14911H23.6907V28.2956C23.6907 28.7967 23.283 29.2044 22.7819 29.2044Z" fill="#4F4F4F"/>
<path d="M12.7864 10.9668C8.77731 10.9668 5.51562 14.2285 5.51562 18.2376C5.51562 22.2467 8.77731 25.5084 12.7864 25.5084C16.7956 25.5084 20.0572 22.2467 20.0572 18.2376C20.0572 14.2285 16.7956 10.9668 12.7864 10.9668ZM12.7864 12.7845C15.4777 12.7845 17.7195 14.7443 18.1605 17.3116C18.1604 17.3174 18.1597 17.323 18.1597 17.3288C18.1597 18.5022 16.6528 19.0238 16.001 17.9691C15.4843 17.1331 14.2775 17.1344 13.7618 17.969C13.2915 18.7297 12.2837 18.7322 11.812 17.969C11.2954 17.133 10.0885 17.1345 9.57286 17.969C8.9217 19.0221 7.41319 18.5041 7.41319 17.3288C7.41319 17.323 7.4124 17.3174 7.41234 17.3117C7.85337 14.7443 10.0952 12.7845 12.7864 12.7845V12.7845ZM12.7864 23.6907C10.479 23.6907 8.50181 22.25 7.70681 20.221C8.75059 20.5489 9.8958 20.2825 10.6924 19.4701C11.8526 20.6533 13.7215 20.6527 14.8813 19.4701C15.6793 20.284 16.8244 20.5483 17.8661 20.221C17.0711 22.25 15.0939 23.6907 12.7864 23.6907Z" fill="#4F4F4F"/>
<path d="M20.964 5.51399C21.466 5.51399 21.8729 5.10709 21.8729 4.60514C21.8729 4.1032 21.466 3.69629 20.964 3.69629C20.4621 3.69629 20.0552 4.1032 20.0552 4.60514C20.0552 5.10709 20.4621 5.51399 20.964 5.51399Z" fill="#4F4F4F"/>
<path d="M17.3268 5.51302C17.8288 5.51302 18.2357 5.10611 18.2357 4.60416C18.2357 4.10222 17.8288 3.69531 17.3268 3.69531C16.8249 3.69531 16.418 4.10222 16.418 4.60416C16.418 5.10611 16.8249 5.51302 17.3268 5.51302Z" fill="#4F4F4F"/>
<path d="M13.6935 5.51399C14.1955 5.51399 14.6024 5.10709 14.6024 4.60514C14.6024 4.1032 14.1955 3.69629 13.6935 3.69629C13.1916 3.69629 12.7847 4.1032 12.7847 4.60514C12.7847 5.10709 13.1916 5.51399 13.6935 5.51399Z" fill="#4F4F4F"/>
<path d="M4.60465 5.51399H7.30091C7.80284 5.51399 8.20976 5.10707 8.20976 4.60514C8.20976 4.10321 7.80284 3.69629 7.30091 3.69629H4.60465C4.10272 3.69629 3.6958 4.10321 3.6958 4.60514C3.6958 5.10707 4.10272 5.51399 4.60465 5.51399Z" fill="#4F4F4F"/>
<path d="M20.9336 25.5088H19.1159C18.614 25.5088 18.207 25.9157 18.207 26.4176C18.207 26.9196 18.614 27.3265 19.1159 27.3265H20.9336C21.4355 27.3265 21.8424 26.9196 21.8424 26.4176C21.8424 25.9157 21.4355 25.5088 20.9336 25.5088Z" fill="#4F4F4F"/>
</svg>
