<svg width="13" height="13" viewBox="0 0 13 13" fill="none" xmlns="http://www.w3.org/2000/svg">
<g clip-path="url(#clip0_27_903)">
<path d="M12.9991 13.0004V12.9999H13.0024V8.23215C13.0024 5.89974 12.5003 4.10303 9.7735 4.10303C8.46267 4.10303 7.583 4.82236 7.22388 5.50432H7.18596V4.32078H4.60059V12.9999H7.29267V8.70232C7.29267 7.57078 7.50717 6.47661 8.90846 6.47661C10.2892 6.47661 10.3098 7.76794 10.3098 8.7749V13.0004H12.9991Z" fill="#2867B2"/>
<path d="M0.214844 4.3208H2.91018V12.9999H0.214844V4.3208Z" fill="#2867B2"/>
<path d="M1.56108 0C0.699292 0 0 0.699292 0 1.56108C0 2.42288 0.699292 3.13679 1.56108 3.13679C2.42287 3.13679 3.12217 2.42288 3.12217 1.56108C3.12162 0.699292 2.42233 0 1.56108 0V0Z" fill="#2867B2"/>
</g>
<defs>
<clipPath id="clip0_27_903">
<rect width="13" height="13" fill="white"/>
</clipPath>
</defs>
</svg>
