<svg width="95" height="92" viewBox="0 0 95 92" fill="none" xmlns="http://www.w3.org/2000/svg">
<rect x="0.619632" y="0.914554" width="92.9448" height="90.4663" rx="6.81595" fill="#F3F7FF" stroke="#9CB0D9" stroke-width="1.23926"/>
<path d="M58.6217 31.6904H57.7662V30.1219C57.7662 29.7282 57.447 29.409 57.0533 29.409C56.6595 29.409 56.3403 29.7282 56.3403 30.1219V31.6904H53.9639V14.8653C53.9639 14.4715 53.6447 14.1523 53.251 14.1523H41.0837C40.6899 14.1523 40.3707 14.4715 40.3707 14.8653V31.6904H37.9943V30.1219C37.9943 29.7282 37.6751 29.409 37.2814 29.409C36.8876 29.409 36.5684 29.7282 36.5684 30.1219V31.6904H35.7129C35.3192 31.6904 35 32.0096 35 32.4033V37.774C35 38.1678 35.3192 38.487 35.7129 38.487H58.6217C59.0154 38.487 59.3346 38.1678 59.3346 37.774V32.4033C59.3346 32.0096 59.0154 31.6904 58.6217 31.6904ZM36.4259 33.1162H40.3707V37.0611H36.4259V33.1162ZM45.2186 37.0611V35.3976H49.116V37.0611H45.2186ZM50.5418 37.0611V34.6847C50.5418 34.291 50.2226 33.9718 49.8289 33.9718H44.5057C44.112 33.9718 43.7928 34.291 43.7928 34.6847V37.0611H41.7966V15.5782H52.538V37.0611H50.5418ZM57.9088 37.0611H53.9639V33.1162H57.9088V37.0611Z" fill="black"/>
<path d="M50.2102 17.2412H44.1265C43.7328 17.2412 43.4136 17.5604 43.4136 17.9541C43.4136 18.3479 43.7328 18.6671 44.1265 18.6671H50.2102C50.6039 18.6671 50.9231 18.3479 50.9231 17.9541C50.9231 17.5604 50.6039 17.2412 50.2102 17.2412Z" fill="black"/>
<path d="M45.2664 20.2832H44.5059C44.1122 20.2832 43.793 20.6024 43.793 20.9961C43.793 21.3899 44.1122 21.7091 44.5059 21.7091H45.2664C45.6601 21.7091 45.9793 21.3899 45.9793 20.9961C45.9793 20.6024 45.6601 20.2832 45.2664 20.2832Z" fill="black"/>
<path d="M49.8293 20.2832H49.0689C48.6752 20.2832 48.356 20.6024 48.356 20.9961C48.356 21.3899 48.6752 21.7091 49.0689 21.7091H49.8293C50.2231 21.7091 50.5423 21.3899 50.5423 20.9961C50.5423 20.6024 50.2231 20.2832 49.8293 20.2832Z" fill="black"/>
<path d="M45.2664 23.3252H44.5059C44.1122 23.3252 43.793 23.6444 43.793 24.0381C43.793 24.4319 44.1122 24.7511 44.5059 24.7511H45.2664C45.6601 24.7511 45.9793 24.4319 45.9793 24.0381C45.9793 23.6444 45.6601 23.3252 45.2664 23.3252Z" fill="black"/>
<path d="M49.8293 23.3252H49.0689C48.6752 23.3252 48.356 23.6444 48.356 24.0381C48.356 24.4319 48.6752 24.7511 49.0689 24.7511H49.8293C50.2231 24.7511 50.5423 24.4319 50.5423 24.0381C50.5423 23.6444 50.2231 23.3252 49.8293 23.3252Z" fill="black"/>
<path d="M45.2664 26.3672H44.5059C44.1122 26.3672 43.793 26.6864 43.793 27.0801C43.793 27.4738 44.1122 27.793 44.5059 27.793H45.2664C45.6601 27.793 45.9793 27.4738 45.9793 27.0801C45.9793 26.6864 45.6601 26.3672 45.2664 26.3672Z" fill="black"/>
<path d="M49.8293 26.3672H49.0689C48.6752 26.3672 48.356 26.6864 48.356 27.0801C48.356 27.4738 48.6752 27.793 49.0689 27.793H49.8293C50.2231 27.793 50.5423 27.4738 50.5423 27.0801C50.5423 26.6864 50.2231 26.3672 49.8293 26.3672Z" fill="black"/>
<path d="M45.2664 29.4092H44.5059C44.1122 29.4092 43.793 29.7284 43.793 30.1221C43.793 30.5158 44.1122 30.835 44.5059 30.835H45.2664C45.6601 30.835 45.9793 30.5158 45.9793 30.1221C45.9793 29.7284 45.6601 29.4092 45.2664 29.4092Z" fill="black"/>
<path d="M49.8293 29.4092H49.0689C48.6752 29.4092 48.356 29.7284 48.356 30.1221C48.356 30.5158 48.6752 30.835 49.0689 30.835H49.8293C50.2231 30.835 50.5423 30.5158 50.5423 30.1221C50.5423 29.7284 50.2231 29.4092 49.8293 29.4092Z" fill="black"/>
<path d="M45.5909 56.9006V55.9588L50.077 50.1094H51.2915V55.9216H52.5803V56.9006H51.2915V58.9082H50.1514V56.9006H45.5909ZM50.2257 51.485L46.7806 55.9216H50.2257V51.485ZM54.6265 57.5822V58.9082H53.2634V57.5822H54.6265ZM61.6023 51.0637H57.1162V53.9883C57.3228 53.7074 57.6202 53.4844 58.0085 53.3191C58.3968 53.1539 58.8223 53.0713 59.2849 53.0713C59.9046 53.0713 60.4168 53.2035 60.8216 53.4678C61.2347 53.7239 61.5363 54.0668 61.7263 54.4964C61.9246 54.9178 62.0237 55.3887 62.0237 55.9092C62.0237 56.8097 61.7717 57.545 61.2677 58.1151C60.7638 58.6851 60.0243 58.9702 59.0495 58.9702C58.1737 58.9702 57.4591 58.7347 56.9055 58.2638C56.352 57.7846 56.0422 57.1443 55.9761 56.3429H57.0914C57.1823 56.8552 57.393 57.2559 57.7234 57.545C58.0622 57.8259 58.4877 57.9664 58.9999 57.9664C59.636 57.9664 60.1152 57.7763 60.4374 57.3963C60.7596 57.0163 60.9207 56.5164 60.9207 55.8968C60.9207 55.2937 60.7555 54.8228 60.425 54.484C60.0946 54.1453 59.6278 53.9759 59.0247 53.9759C58.5951 53.9759 58.2192 54.0709 57.8969 54.261C57.5747 54.4427 57.331 54.6906 57.1658 55.0045H56.0752V50.0599H61.6023V51.0637Z" fill="#4F4F4F"/>
<g clip-path="url(#clip0_27_55)">
<path d="M40.8883 52.4291C40.8234 52.2284 40.6453 52.0858 40.4347 52.0668L37.5732 51.807L36.4417 49.1586C36.3582 48.9645 36.1682 48.8389 35.9571 48.8389C35.746 48.8389 35.556 48.9645 35.4726 49.1591L34.341 51.807L31.4791 52.0668C31.2688 52.0863 31.0912 52.2284 31.0259 52.4291C30.9607 52.6299 31.021 52.8501 31.18 52.9889L33.343 54.8858L32.7052 57.6953C32.6585 57.9019 32.7387 58.1154 32.9101 58.2393C33.0022 58.3059 33.11 58.3398 33.2187 58.3398C33.3124 58.3398 33.4054 58.3145 33.4888 58.2646L35.9571 56.7894L38.4245 58.2646C38.6051 58.3732 38.8327 58.3633 39.0037 58.2393C39.1752 58.1151 39.2553 57.9014 39.2086 57.6953L38.5708 54.8858L40.7337 52.9893C40.8928 52.8501 40.9535 52.6303 40.8883 52.4291Z" fill="#FFC107"/>
</g>
<path d="M14.5967 76.0394H18.4149V77.7793H12.3252V66.4053H14.5967V76.0394ZM19.509 66.2926C19.509 65.9274 19.6379 65.632 19.8957 65.4065C20.1534 65.1702 20.4918 65.0521 20.9106 65.0521C21.3295 65.0521 21.6678 65.1702 21.9256 65.4065C22.1833 65.632 22.3122 65.9274 22.3122 66.2926C22.3122 66.647 22.1833 66.9423 21.9256 67.1786C21.6678 67.4042 21.3295 67.517 20.9106 67.517C20.4918 67.517 20.1534 67.4042 19.8957 67.1786C19.6379 66.9423 19.509 66.647 19.509 66.2926ZM22.0384 68.8541V77.7793H19.7668V68.8541H22.0384ZM27.9759 75.5077L30.2314 68.8541H32.648L29.3453 77.7793H26.5743L23.2717 68.8541H25.7044L27.9759 75.5077ZM37.4066 68.7413C38.1584 68.7413 38.8028 68.9186 39.3398 69.273C39.8768 69.6274 40.2581 70.1054 40.4837 70.7068V68.8541H42.7391V77.7793H40.4837V75.9105C40.2581 76.5119 39.8768 76.9953 39.3398 77.3604C38.8028 77.7149 38.1584 77.8921 37.4066 77.8921C36.6548 77.8921 35.9781 77.7095 35.3767 77.3443C34.7752 76.9791 34.3026 76.4529 33.9589 75.7655C33.626 75.0674 33.4595 74.2511 33.4595 73.3167C33.4595 72.3823 33.626 71.5714 33.9589 70.884C34.3026 70.1859 34.7752 69.6543 35.3767 69.2891C35.9781 68.9239 36.6548 68.7413 37.4066 68.7413ZM38.1154 70.7229C37.4066 70.7229 36.8373 70.9538 36.4077 71.4157C35.9781 71.8775 35.7633 72.5112 35.7633 73.3167C35.7633 74.1222 35.9781 74.7559 36.4077 75.2177C36.8373 75.6688 37.4066 75.8944 38.1154 75.8944C38.8028 75.8944 39.3667 75.6635 39.807 75.2016C40.2581 74.7291 40.4837 74.1007 40.4837 73.3167C40.4837 72.5219 40.2581 71.8936 39.807 71.4318C39.3667 70.9592 38.8028 70.7229 38.1154 70.7229ZM50.1303 68.7413C50.8821 68.7413 51.5587 68.9239 52.1602 69.2891C52.7617 69.6543 53.2289 70.1859 53.5618 70.884C53.9055 71.5714 54.0773 72.3823 54.0773 73.3167C54.0773 74.2511 53.9055 75.0674 53.5618 75.7655C53.2289 76.4529 52.7617 76.9791 52.1602 77.3443C51.5587 77.7095 50.8821 77.8921 50.1303 77.8921C49.3785 77.8921 48.734 77.7149 48.197 77.3604C47.6708 76.9953 47.2949 76.5119 47.0693 75.9105V77.7793H44.7977V65.8576H47.0693V70.7068C47.2949 70.1054 47.6708 69.6274 48.197 69.273C48.734 68.9186 49.3785 68.7413 50.1303 68.7413ZM49.4214 70.7229C48.734 70.7229 48.1648 70.9592 47.7137 71.4318C47.2734 71.8936 47.0532 72.5219 47.0532 73.3167C47.0532 74.1007 47.2734 74.7291 47.7137 75.2016C48.1648 75.6635 48.734 75.8944 49.4214 75.8944C50.1303 75.8944 50.6995 75.6688 51.1291 75.2177C51.5587 74.7559 51.7736 74.1222 51.7736 73.3167C51.7736 72.5112 51.5587 71.8775 51.1291 71.4157C50.6995 70.9538 50.1303 70.7229 49.4214 70.7229ZM55.4271 66.2926C55.4271 65.9274 55.556 65.632 55.8137 65.4065C56.0715 65.1702 56.4098 65.0521 56.8287 65.0521C57.2476 65.0521 57.5859 65.1702 57.8437 65.4065C58.1014 65.632 58.2303 65.9274 58.2303 66.2926C58.2303 66.647 58.1014 66.9423 57.8437 67.1786C57.5859 67.4042 57.2476 67.517 56.8287 67.517C56.4098 67.517 56.0715 67.4042 55.8137 67.1786C55.556 66.9423 55.4271 66.647 55.4271 66.2926ZM57.9564 68.8541V77.7793H55.6849V68.8541H57.9564ZM62.283 65.8576V77.7793H60.0114V65.8576H62.283ZM64.0802 66.2926C64.0802 65.9274 64.209 65.632 64.4668 65.4065C64.7246 65.1702 65.0629 65.0521 65.4818 65.0521C65.9006 65.0521 66.239 65.1702 66.4967 65.4065C66.7545 65.632 66.8834 65.9274 66.8834 66.2926C66.8834 66.647 66.7545 66.9423 66.4967 67.1786C66.239 67.4042 65.9006 67.517 65.4818 67.517C65.0629 67.517 64.7246 67.4042 64.4668 67.1786C64.209 66.9423 64.0802 66.647 64.0802 66.2926ZM66.6095 68.8541V77.7793H64.3379V68.8541H66.6095ZM73.4331 75.8299V77.7793H72.241C71.2421 77.7793 70.4742 77.5376 69.9372 77.0543C69.4109 76.571 69.1478 75.7655 69.1478 74.6378V70.7713H67.9073V68.8541H69.1478V66.647H71.4193V68.8541H73.417V70.7713H71.4193V74.67C71.4193 75.0996 71.5053 75.4003 71.6771 75.5722C71.849 75.744 72.1389 75.8299 72.5471 75.8299H73.4331ZM76.5982 68.8541L79.0309 74.9116L81.2863 68.8541H83.7835L78.322 82.0325H75.8088L77.8226 77.5215L74.0689 68.8541H76.5982Z" fill="#4F4F4F"/>
<defs>
<clipPath id="clip0_27_55">
<rect width="9.91411" height="9.91411" fill="white" transform="translate(31 48.626)"/>
</clipPath>
</defs>
</svg>
