<svg width="95" height="92" viewBox="0 0 95 92" fill="none" xmlns="http://www.w3.org/2000/svg">
<rect x="0.619632" y="0.619632" width="92.9448" height="90.4663" rx="6.81595" fill="#F3F7FF" stroke="#9CB0D9" stroke-width="1.23926"/>
<path d="M26.0262 58.2399C26.7995 58.2399 27.46 58.3741 28.0078 58.6426C28.5663 58.9112 28.9851 59.2817 29.2644 59.7543C29.5544 60.2268 29.6994 60.7531 29.6994 61.3331C29.6994 62.0634 29.5007 62.6649 29.1033 63.1375C28.7059 63.5993 28.1796 63.8839 27.5244 63.9913V64.0719C29.114 64.5444 29.9088 65.4788 29.9088 66.8751C29.9088 67.8524 29.5812 68.6472 28.9261 69.2594C28.2709 69.8609 27.3472 70.1616 26.1551 70.1616C24.8877 70.1616 23.8781 69.8501 23.1263 69.2272C22.3745 68.5935 21.9556 67.643 21.8697 66.3756H24.0929C24.1466 66.9556 24.3346 67.4175 24.6568 67.7611C24.9897 68.0941 25.4569 68.2606 26.0584 68.2606C26.5739 68.2606 26.9767 68.1209 27.2667 67.8417C27.5567 67.5517 27.7017 67.1758 27.7017 66.714C27.7017 66.1662 27.4922 65.7473 27.0734 65.4574C26.6545 65.1674 26.0369 65.0224 25.2207 65.0224H24.7535V63.1697H25.2207C26.7243 63.1912 27.4761 62.6703 27.4761 61.607C27.4761 61.1451 27.3419 60.7853 27.0734 60.5276C26.8048 60.2591 26.4397 60.1248 25.9778 60.1248C25.4945 60.1248 25.0971 60.2805 24.7857 60.592C24.4742 60.8927 24.297 61.317 24.254 61.8647H22.0308C22.0952 60.7048 22.4711 59.8133 23.1585 59.1904C23.8459 58.5567 24.8018 58.2399 26.0262 58.2399ZM33.7372 67.6806V70.0488H31.2884V67.6806H33.7372ZM34.4128 60.8014V58.6749H38.5048V70.0488H36.1205V60.8014H34.4128ZM40.1655 67.7611V65.8762L45.6108 58.546H48.0435V65.7957H49.5256V67.7611H48.0435V70.0488H45.7558V67.7611H40.1655ZM45.933 61.2042L42.4854 65.7957H45.933V61.2042ZM56.8578 58.1271V70.0488H54.5862V58.1271H56.8578ZM63.037 61.0109C63.907 61.0109 64.6856 61.1935 65.373 61.5586C66.0711 61.9238 66.6189 62.4554 67.0163 63.1536C67.4137 63.8409 67.6124 64.6518 67.6124 65.5862C67.6124 66.5206 67.4137 67.3315 67.0163 68.0189C66.6189 68.7063 66.0711 69.2379 65.373 69.6138C64.6856 69.979 63.907 70.1616 63.037 70.1616C62.167 70.1616 61.383 69.979 60.6849 69.6138C59.9975 69.2379 59.4551 68.7063 59.0577 68.0189C58.6603 67.3315 58.4616 66.5206 58.4616 65.5862C58.4616 64.6518 58.6603 63.8409 59.0577 63.1536C59.4551 62.4554 59.9975 61.9238 60.6849 61.5586C61.383 61.1935 62.167 61.0109 63.037 61.0109ZM63.037 62.9763C62.4033 62.9763 61.8663 63.2019 61.426 63.653C60.9856 64.0933 60.7654 64.7378 60.7654 65.5862C60.7654 66.4347 60.9856 67.0845 61.426 67.5356C61.8663 67.976 62.4033 68.1961 63.037 68.1961C63.6707 68.1961 64.2077 67.976 64.648 67.5356C65.0884 67.0845 65.3086 66.4347 65.3086 65.5862C65.3086 64.7378 65.0884 64.0933 64.648 63.653C64.2077 63.2019 63.6707 62.9763 63.037 62.9763ZM73.9864 68.0995V70.0488H72.7943C71.7954 70.0488 71.0275 69.8072 70.4905 69.3239C69.9642 68.8405 69.701 68.035 69.701 66.9073V63.0408H68.4605V61.1236H69.701V58.9165H71.9726V61.1236H73.9703V63.0408H71.9726V66.9395C71.9726 67.3691 72.0585 67.6699 72.2304 67.8417C72.4022 68.0135 72.6922 68.0995 73.1003 68.0995H73.9864Z" fill="#4F4F4F"/>
<path d="M53.5562 32.2212C52.9882 32.2212 52.5235 32.686 52.5235 33.254V35.3194H50.4581C49.8901 35.3194 49.4254 35.7841 49.4254 36.3521C49.4254 36.9201 49.8901 37.3848 50.4581 37.3848H53.5562C54.1242 37.3848 54.589 36.9201 54.589 36.3521V33.254C54.589 32.686 54.1242 32.2212 53.5562 32.2212ZM42.1963 29.1231H44.2618C44.8298 29.1231 45.2945 28.6584 45.2945 28.0904C45.2945 27.5224 44.8298 27.0576 44.2618 27.0576H41.1636C40.5956 27.0576 40.1309 27.5224 40.1309 28.0904V31.1885C40.1309 31.7565 40.5956 32.2212 41.1636 32.2212C41.7316 32.2212 42.1963 31.7565 42.1963 31.1885V29.1231ZM56.6544 22.9268H38.0654C36.9294 22.9268 36 23.8562 36 24.9922V39.4503C36 40.5863 36.9294 41.5157 38.0654 41.5157H56.6544C57.7904 41.5157 58.7198 40.5863 58.7198 39.4503V24.9922C58.7198 23.8562 57.7904 22.9268 56.6544 22.9268ZM55.6217 39.4606H39.0982C38.5302 39.4606 38.0654 38.9959 38.0654 38.4279V26.0146C38.0654 25.4466 38.5302 24.9819 39.0982 24.9819H55.6217C56.1897 24.9819 56.6544 25.4466 56.6544 26.0146V38.4279C56.6544 38.9959 56.1897 39.4606 55.6217 39.4606V39.4606Z" fill="#404A5E"/>
</svg>
