<svg width="95" height="92" viewBox="0 0 95 92" fill="none" xmlns="http://www.w3.org/2000/svg">
<rect x="0.619632" y="0.914554" width="92.9448" height="90.4663" rx="6.81595" fill="#F3F7FF" stroke="#9CB0D9" stroke-width="1.23926"/>
<path d="M35.3952 37.5405C36.8221 38.9674 39.0228 39.1319 40.6291 38.0694L43.5068 40.9472C43.8315 41.272 44.3582 41.2721 44.6831 40.9472L47.0356 38.5947C47.3602 38.27 47.3603 37.7432 47.0356 37.4185L44.2236 34.6065C49.8348 29.2941 55.6127 28.925 57.4127 28.294C57.7035 28.2213 57.9326 27.9979 58.0125 27.7091C58.0925 27.4203 58.011 27.1109 57.7991 26.899L44.8606 13.9604C44.6487 13.7485 44.3393 13.667 44.0505 13.747C43.7617 13.827 43.5383 14.0561 43.4656 14.3468C42.8544 16.0552 42.4481 22.254 36.7152 27.9869C36.3259 28.3763 34.4582 30.2439 34.219 30.4831C32.5938 32.1083 32.5935 34.7389 34.219 36.3643L35.3952 37.5405ZM44.095 39.1829L41.8645 36.9524L43.0407 35.7762L45.2713 38.0067L44.095 39.1829ZM38.3295 28.7125C40.749 26.1664 42.583 23.1474 43.7095 19.8668L51.8927 28.05C48.6121 29.1765 45.5931 31.0105 43.047 33.43L38.3295 28.7125ZM44.723 16.1753L55.5842 27.0365C54.4404 27.3231 54.0712 27.4135 53.7033 27.5081L44.2514 18.0562C44.3409 17.708 44.5153 17.0044 44.723 16.1753ZM35.3952 31.6593L37.1596 29.895L41.8645 34.5999L40.1002 36.3643C39.1273 37.3371 37.5443 37.3372 36.5714 36.3643L35.3952 35.1881C34.4202 34.213 34.4199 32.6346 35.3952 31.6593Z" fill="black"/>
<path d="M50.5231 17.8466C50.9825 17.8466 51.3549 17.4742 51.3549 17.0148V13.6325C51.3549 13.1732 50.9825 12.8008 50.5231 12.8008C50.0638 12.8008 49.6914 13.1732 49.6914 13.6325V17.0148C49.6914 17.4742 50.0638 17.8466 50.5231 17.8466Z" fill="black"/>
<path d="M53.4756 19.4224C53.8872 19.6282 54.3864 19.4604 54.5914 19.0504L55.7388 16.7556L56.5863 17.6031C56.7747 17.7915 57.0419 17.8782 57.305 17.8364C57.5681 17.7946 57.7952 17.6293 57.9159 17.3919L59.6348 14.0095C59.8429 13.6 59.6796 13.0993 59.2702 12.8912C58.8606 12.6831 58.3599 12.8464 58.1519 13.2559L56.9522 15.6166L56.0991 14.7635C55.9101 14.5745 55.6417 14.4878 55.3778 14.5306C55.1139 14.5734 54.8867 14.7405 54.7671 14.9796L53.1037 18.3065C52.8982 18.7173 53.0647 19.2169 53.4756 19.4224Z" fill="black"/>
<path d="M57.8193 19.8117C57.67 19.6314 57.4515 19.5224 57.2177 19.5115C56.9832 19.5005 56.7562 19.5887 56.5907 19.7542L54.9272 21.4176C54.6024 21.7424 54.6024 22.269 54.9272 22.5939C55.252 22.9187 55.7786 22.9187 56.1034 22.5939L57.121 21.5763L58.2018 22.8809C58.5337 23.2816 59.1482 23.2824 59.4813 22.8826L61.2002 20.8192C61.4942 20.4663 61.4464 19.9418 61.0935 19.6478C60.7405 19.3537 60.2161 19.4016 59.9221 19.7545L58.8441 21.0486L57.8193 19.8117Z" fill="black"/>
<path d="M45.5909 56.9006V55.9588L50.077 50.1094H51.2915V55.9216H52.5803V56.9006H51.2915V58.9082H50.1514V56.9006H45.5909ZM50.2257 51.485L46.7806 55.9216H50.2257V51.485ZM54.6265 57.5822V58.9082H53.2634V57.5822H54.6265ZM61.6023 51.0637H57.1162V53.9883C57.3228 53.7074 57.6202 53.4844 58.0085 53.3191C58.3968 53.1539 58.8223 53.0713 59.2849 53.0713C59.9046 53.0713 60.4168 53.2035 60.8216 53.4678C61.2347 53.7239 61.5363 54.0668 61.7263 54.4964C61.9246 54.9178 62.0237 55.3887 62.0237 55.9092C62.0237 56.8097 61.7717 57.545 61.2677 58.1151C60.7638 58.6851 60.0243 58.9702 59.0495 58.9702C58.1737 58.9702 57.4591 58.7347 56.9055 58.2638C56.352 57.7846 56.0422 57.1443 55.9761 56.3429H57.0914C57.1823 56.8552 57.393 57.2559 57.7234 57.545C58.0622 57.8259 58.4877 57.9664 58.9999 57.9664C59.636 57.9664 60.1152 57.7763 60.4374 57.3963C60.7596 57.0163 60.9207 56.5164 60.9207 55.8968C60.9207 55.2937 60.7555 54.8228 60.425 54.484C60.0946 54.1453 59.6278 53.9759 59.0247 53.9759C58.5951 53.9759 58.2192 54.0709 57.8969 54.261C57.5747 54.4427 57.331 54.6906 57.1658 55.0045H56.0752V50.0599H61.6023V51.0637Z" fill="#4F4F4F"/>
<g clip-path="url(#clip0_27_97)">
<path d="M40.8883 52.4291C40.8234 52.2284 40.6453 52.0858 40.4347 52.0668L37.5732 51.807L36.4417 49.1586C36.3582 48.9645 36.1682 48.8389 35.9571 48.8389C35.746 48.8389 35.556 48.9645 35.4726 49.1591L34.341 51.807L31.4791 52.0668C31.2688 52.0863 31.0912 52.2284 31.0259 52.4291C30.9607 52.6299 31.021 52.8501 31.18 52.9889L33.343 54.8858L32.7052 57.6953C32.6585 57.9019 32.7387 58.1154 32.9101 58.2393C33.0022 58.3059 33.11 58.3398 33.2187 58.3398C33.3124 58.3398 33.4054 58.3145 33.4888 58.2646L35.9571 56.7894L38.4245 58.2646C38.6051 58.3732 38.8327 58.3633 39.0037 58.2393C39.1752 58.1151 39.2553 57.9014 39.2086 57.6953L38.5708 54.8858L40.7337 52.9893C40.8928 52.8501 40.9535 52.6303 40.8883 52.4291Z" fill="#FFC107"/>
</g>
<path d="M35.0699 77.7793H32.7984L27.7075 70.0463V77.7793H25.4359V66.4053H27.7075L32.7984 74.2028V66.4053H35.0699V77.7793ZM41.2497 68.7413C42.1196 68.7413 42.8983 68.9239 43.5857 69.2891C44.2838 69.6543 44.8315 70.1859 45.2289 70.884C45.6263 71.5714 45.825 72.3823 45.825 73.3167C45.825 74.2511 45.6263 75.062 45.2289 75.7494C44.8315 76.4368 44.2838 76.9684 43.5857 77.3443C42.8983 77.7095 42.1196 77.8921 41.2497 77.8921C40.3797 77.8921 39.5957 77.7095 38.8975 77.3443C38.2102 76.9684 37.6678 76.4368 37.2704 75.7494C36.873 75.062 36.6743 74.2511 36.6743 73.3167C36.6743 72.3823 36.873 71.5714 37.2704 70.884C37.6678 70.1859 38.2102 69.6543 38.8975 69.2891C39.5957 68.9239 40.3797 68.7413 41.2497 68.7413ZM41.2497 70.7068C40.616 70.7068 40.079 70.9324 39.6386 71.3835C39.1983 71.8238 38.9781 72.4682 38.9781 73.3167C38.9781 74.1652 39.1983 74.815 39.6386 75.2661C40.079 75.7064 40.616 75.9266 41.2497 75.9266C41.8833 75.9266 42.4203 75.7064 42.8607 75.2661C43.3011 74.815 43.5212 74.1652 43.5212 73.3167C43.5212 72.4682 43.3011 71.8238 42.8607 71.3835C42.4203 70.9324 41.8833 70.7068 41.2497 70.7068ZM47.1726 66.2926C47.1726 65.9274 47.3015 65.632 47.5593 65.4065C47.817 65.1702 48.1554 65.0521 48.5742 65.0521C48.9931 65.0521 49.3314 65.1702 49.5892 65.4065C49.847 65.632 49.9758 65.9274 49.9758 66.2926C49.9758 66.647 49.847 66.9423 49.5892 67.1786C49.3314 67.4042 48.9931 67.517 48.5742 67.517C48.1554 67.517 47.817 67.4042 47.5593 67.1786C47.3015 66.9423 47.1726 66.647 47.1726 66.2926ZM49.702 68.8541V77.7793H47.4304V68.8541H49.702ZM54.834 68.7413C55.9188 68.7413 56.7888 69.0152 57.4439 69.563C58.0991 70.1107 58.5072 70.8411 58.6683 71.754H56.5417C56.4558 71.3244 56.2625 70.9807 55.9618 70.7229C55.661 70.4652 55.269 70.3363 54.7857 70.3363C54.399 70.3363 54.0983 70.4276 53.8835 70.6102C53.6687 70.7927 53.5613 71.0398 53.5613 71.3512C53.5613 71.5983 53.6472 71.797 53.8191 71.9473C53.9909 72.0977 54.2057 72.2158 54.4635 72.3018C54.7212 72.3877 55.0918 72.4897 55.5751 72.6078C56.2517 72.7582 56.7995 72.9193 57.2184 73.0912C57.648 73.2523 58.0131 73.5154 58.3139 73.8806C58.6253 74.235 58.7811 74.7183 58.7811 75.3305C58.7811 76.0931 58.4803 76.7106 57.8789 77.1832C57.2882 77.6558 56.488 77.8921 55.4784 77.8921C54.3185 77.8921 53.3895 77.6343 52.6913 77.1188C51.9932 76.5925 51.569 75.846 51.4186 74.8794H53.5935C53.6472 75.3198 53.8405 75.6688 54.1735 75.9266C54.5064 76.1736 54.9414 76.2971 55.4784 76.2971C55.8651 76.2971 56.1604 76.2058 56.3645 76.0233C56.5686 75.8299 56.6706 75.5829 56.6706 75.2822C56.6706 75.0244 56.5793 74.815 56.3967 74.6539C56.2249 74.4928 56.0047 74.3693 55.7362 74.2833C55.4784 74.1974 55.1079 74.0954 54.6246 73.9772C53.9587 73.8269 53.4163 73.6765 52.9974 73.5261C52.5893 73.365 52.2349 73.1126 51.9341 72.769C51.6442 72.4253 51.4992 71.9527 51.4992 71.3512C51.4992 70.5779 51.7945 69.9496 52.3852 69.4663C52.976 68.983 53.7922 68.7413 54.834 68.7413ZM68.8665 72.9784C68.8665 73.2039 68.8396 73.4617 68.7859 73.7517H62.2451C62.2773 74.5465 62.4921 75.1318 62.8895 75.5077C63.2869 75.8836 63.7809 76.0716 64.3716 76.0716C64.8979 76.0716 65.3329 75.9427 65.6766 75.6849C66.031 75.4272 66.2566 75.0781 66.3532 74.6378H68.7537C68.6355 75.2607 68.3831 75.8192 67.9965 76.3132C67.6098 76.8073 67.1104 77.194 66.4982 77.4732C65.8968 77.7524 65.2255 77.8921 64.4844 77.8921C63.6145 77.8921 62.8412 77.7095 62.1645 77.3443C61.4879 76.9684 60.9616 76.4368 60.5857 75.7494C60.2098 75.062 60.0218 74.2511 60.0218 73.3167C60.0218 72.3823 60.2098 71.5714 60.5857 70.884C60.9616 70.1859 61.4879 69.6543 62.1645 69.2891C62.8412 68.9239 63.6145 68.7413 64.4844 68.7413C65.3651 68.7413 66.1331 68.9239 66.7882 69.2891C67.4541 69.6543 67.9643 70.1591 68.3187 70.8035C68.6839 71.4372 68.8665 72.1621 68.8665 72.9784ZM66.5788 72.7528C66.611 72.0225 66.4177 71.4694 65.9988 71.0935C65.5907 70.7176 65.0859 70.5296 64.4844 70.5296C63.8722 70.5296 63.3567 70.7176 62.9378 71.0935C62.5189 71.4694 62.288 72.0225 62.2451 72.7528H66.5788Z" fill="#4F4F4F"/>
<defs>
<clipPath id="clip0_27_97">
<rect width="9.91411" height="9.91411" fill="white" transform="translate(31 48.626)"/>
</clipPath>
</defs>
</svg>
