<svg width="30" height="34" viewBox="0 0 30 34" fill="none" xmlns="http://www.w3.org/2000/svg">
<path d="M-1.34695e-06 3.18527L-1.29792e-07 31.0307C-5.82248e-08 32.668 1.33203 34 2.9693 34L10.8874 34C12.5247 34 13.8567 32.668 13.8567 31.0307L13.8567 30.0409L15.8363 30.0409L15.8363 31.0307C15.8363 32.668 17.1683 34 18.8056 34L26.7237 34C28.361 34 29.693 32.668 29.693 31.0307L29.693 3.18526C29.693 1.54799 28.361 0.215964 26.7237 0.215964L18.8056 0.215964C17.1683 0.215965 15.8363 1.54799 15.8363 3.18526L15.8363 4.24102L13.8567 4.24102L13.8567 3.18526C13.8567 1.54799 12.5247 0.215965 10.8874 0.215965L2.9693 0.215965C1.33203 0.215965 -1.41852e-06 1.54799 -1.34695e-06 3.18527ZM18.8056 2.1955L26.7237 2.1955C27.2695 2.1955 27.7135 2.63951 27.7135 3.18526L27.7135 31.0307C27.7135 31.5765 27.2695 32.0205 26.7237 32.0205L18.8056 32.0205C18.2598 32.0205 17.8158 31.5765 17.8158 31.0307L17.8158 3.18526C17.8158 2.63951 18.2598 2.1955 18.8056 2.1955ZM15.8363 6.22055L15.8363 28.0614L13.8567 28.0614L13.8567 6.22055L15.8363 6.22055ZM10.8874 2.1955C11.4332 2.1955 11.8772 2.63951 11.8772 3.18526L11.8772 31.0307C11.8772 31.5765 11.4332 32.0205 10.8874 32.0205L2.9693 32.0205C2.42354 32.0205 1.97953 31.5765 1.97953 31.0307L1.97953 3.18527C1.97953 2.63951 2.42354 2.1955 2.9693 2.1955L10.8874 2.1955Z" fill="#4F4F4F"/>
<path d="M3.96094 21.0672L3.96094 27.0718C3.96094 27.6184 4.40409 28.0615 4.9507 28.0615C5.49732 28.0615 5.94047 27.6184 5.94047 27.0718L5.94047 21.0672C5.94047 20.5206 5.49732 20.0774 4.9507 20.0774C4.40409 20.0774 3.96094 20.5206 3.96094 21.0672Z" fill="#4F4F4F"/>
<path d="M7.91748 21.0672L7.91748 27.0718C7.91748 27.6184 8.36063 28.0615 8.90725 28.0615C9.45386 28.0615 9.89701 27.6184 9.89701 27.0718L9.89701 21.0672C9.89701 20.5206 9.45386 20.0774 8.90725 20.0774C8.36063 20.0774 7.91748 20.5206 7.91748 21.0672Z" fill="#4F4F4F"/>
<path d="M19.7969 21.0672L19.7969 27.0718C19.7969 27.6184 20.24 28.0615 20.7866 28.0615C21.3333 28.0615 21.7764 27.6184 21.7764 27.0718L21.7764 21.0672C21.7764 20.5206 21.3333 20.0774 20.7866 20.0774C20.24 20.0774 19.7969 20.5206 19.7969 21.0672Z" fill="#4F4F4F"/>
<path d="M23.7544 21.0672L23.7544 27.0718C23.7544 27.6184 24.1975 28.0615 24.7442 28.0615C25.2908 28.0615 25.7339 27.6184 25.7339 27.0718L25.7339 21.0672C25.7339 20.5206 25.2908 20.0774 24.7442 20.0774C24.1975 20.0774 23.7544 20.5206 23.7544 21.0672Z" fill="#4F4F4F"/>
</svg>
