<svg width="95" height="92" viewBox="0 0 95 92" fill="none" xmlns="http://www.w3.org/2000/svg">
<rect x="0.619632" y="0.914554" width="92.9448" height="90.4663" rx="6.81595" fill="#F3F7FF" stroke="#9CB0D9" stroke-width="1.23926"/>
<path d="M47.4557 28.7327C48.9732 28.7327 50.2077 27.4981 50.2077 25.9805C50.2077 24.4631 48.9732 23.2285 47.4557 23.2285C45.9382 23.2285 44.7036 24.4631 44.7036 25.9805C44.7036 27.4981 45.9382 28.7327 47.4557 28.7327ZM47.4557 24.5736C48.2315 24.5736 48.8627 25.2047 48.8627 25.9805C48.8627 26.7564 48.2315 27.3876 47.4557 27.3876C46.6798 27.3876 46.0487 26.7564 46.0487 25.9805C46.0487 25.2047 46.6798 24.5736 47.4557 24.5736Z" fill="black"/>
<path d="M39.9373 27.2559H39.0673C38.9309 27.2559 38.8203 27.3664 38.8203 27.5028V30.3787C38.8203 30.5151 38.9309 30.6256 39.0673 30.6256H39.9373C40.0737 30.6256 40.1842 30.5151 40.1842 30.3787V27.5028C40.1843 27.3664 40.0737 27.2559 39.9373 27.2559Z" fill="black"/>
<path d="M39.9373 32.1836H39.0673C38.9309 32.1836 38.8203 32.2942 38.8203 32.4305V35.3064C38.8203 35.4428 38.9309 35.5534 39.0673 35.5534H39.9373C40.0737 35.5534 40.1842 35.4428 40.1842 35.3064V32.4305C40.1843 32.2942 40.0737 32.1836 39.9373 32.1836Z" fill="black"/>
<path d="M55.0439 30.6266H55.9139C56.0503 30.6266 56.1608 30.516 56.1608 30.3797V27.5038C56.1608 27.3674 56.0503 27.2568 55.9139 27.2568H55.0438C54.9074 27.2568 54.7969 27.3674 54.7969 27.5038V30.3797C54.7969 30.516 54.9075 30.6266 55.0439 30.6266Z" fill="black"/>
<path d="M55.0439 35.5534H55.9139C56.0503 35.5534 56.1608 35.4428 56.1608 35.3064V32.4305C56.1608 32.2942 56.0503 32.1836 55.9139 32.1836H55.0438C54.9074 32.1836 54.7969 32.2942 54.7969 32.4305V35.3064C54.7969 35.4428 54.9075 35.5534 55.0439 35.5534Z" fill="black"/>
<path d="M58.3102 24.3444H53.3173V21.5127L54.6328 21.9055C55.5066 22.1222 55.8336 20.884 55.0177 20.6167L48.2048 18.5822V16.8666H51.8755C52.2469 16.8666 52.548 16.5654 52.548 16.194C52.548 15.8226 52.2469 15.5215 51.8755 15.5215H47.5323C47.1608 15.5215 46.8597 15.8226 46.8597 16.194V18.5821L40.0468 20.6167C39.1987 20.9232 39.5903 22.124 40.4317 21.9056L41.6654 21.5371V24.3444H36.6725C36.3011 24.3444 36 24.6455 36 25.0169V37.8C36 38.1715 36.3011 38.4726 36.6725 38.4726H52.643C52.6432 38.4726 52.6436 38.4725 52.6438 38.4725C52.6441 38.4725 52.6444 38.4726 52.6447 38.4726H58.3101C58.6815 38.4726 58.9827 38.1715 58.9827 37.8V25.0169C58.9827 24.6455 58.6816 24.3444 58.3102 24.3444V24.3444ZM47.5322 19.7851L51.9721 21.111V37.1276H50.4744V32.7674C50.4744 31.1176 49.1321 29.7754 47.4824 29.7754C45.8326 29.7754 44.4904 31.1175 44.4904 32.7672V37.1276H43.0105V25.0169C43.0105 25.0166 43.0105 25.0164 43.0105 25.0161V21.1354L47.5322 19.7851ZM37.3451 25.6895H41.6654V37.1275H37.3451V25.6895ZM45.8355 37.1275V32.7671C45.8355 31.8591 46.5743 31.1204 47.4824 31.1204C48.3905 31.1204 49.1293 31.8592 49.1293 32.7673V37.1275H45.8355V37.1275ZM57.6376 37.1275H53.3173V25.6895H57.6376V37.1275Z" fill="black"/>
<path d="M45.5909 56.9006V55.9588L50.077 50.1094H51.2915V55.9216H52.5803V56.9006H51.2915V58.9082H50.1514V56.9006H45.5909ZM50.2257 51.485L46.7806 55.9216H50.2257V51.485ZM54.6265 57.5822V58.9082H53.2634V57.5822H54.6265ZM61.6023 51.0637H57.1162V53.9883C57.3228 53.7074 57.6202 53.4844 58.0085 53.3191C58.3968 53.1539 58.8223 53.0713 59.2849 53.0713C59.9046 53.0713 60.4168 53.2035 60.8216 53.4678C61.2347 53.7239 61.5363 54.0668 61.7263 54.4964C61.9246 54.9178 62.0237 55.3887 62.0237 55.9092C62.0237 56.8097 61.7717 57.545 61.2677 58.1151C60.7638 58.6851 60.0243 58.9702 59.0495 58.9702C58.1737 58.9702 57.4591 58.7347 56.9055 58.2638C56.352 57.7846 56.0422 57.1443 55.9761 56.3429H57.0914C57.1823 56.8552 57.393 57.2559 57.7234 57.545C58.0622 57.8259 58.4877 57.9664 58.9999 57.9664C59.636 57.9664 60.1152 57.7763 60.4374 57.3963C60.7596 57.0163 60.9207 56.5164 60.9207 55.8968C60.9207 55.2937 60.7555 54.8228 60.425 54.484C60.0946 54.1453 59.6278 53.9759 59.0247 53.9759C58.5951 53.9759 58.2192 54.0709 57.8969 54.261C57.5747 54.4427 57.331 54.6906 57.1658 55.0045H56.0752V50.0599H61.6023V51.0637Z" fill="#4F4F4F"/>
<g clip-path="url(#clip0_27_73)">
<path d="M40.8883 52.4291C40.8234 52.2284 40.6453 52.0858 40.4347 52.0668L37.5732 51.807L36.4417 49.1586C36.3582 48.9645 36.1682 48.8389 35.9571 48.8389C35.746 48.8389 35.556 48.9645 35.4726 49.1591L34.341 51.807L31.4791 52.0668C31.2688 52.0863 31.0912 52.2284 31.0259 52.4291C30.9607 52.6299 31.021 52.8501 31.18 52.9889L33.343 54.8858L32.7052 57.6953C32.6585 57.9019 32.7387 58.1154 32.9101 58.2393C33.0022 58.3059 33.11 58.3398 33.2187 58.3398C33.3124 58.3398 33.4054 58.3145 33.4888 58.2646L35.9571 56.7894L38.4245 58.2646C38.6051 58.3732 38.8327 58.3633 39.0037 58.2393C39.1752 58.1151 39.2553 57.9014 39.2086 57.6953L38.5708 54.8858L40.7337 52.9893C40.8928 52.8501 40.9535 52.6303 40.8883 52.4291Z" fill="#FFC107"/>
</g>
<path d="M28.1956 74.67C28.1956 75.25 28.0506 75.787 27.7606 76.281C27.4706 76.7643 27.041 77.1564 26.4718 77.4571C25.9025 77.7471 25.2098 77.8921 24.3935 77.8921C23.588 77.8921 22.8684 77.7578 22.2347 77.4893C21.6011 77.2101 21.0909 76.8127 20.7042 76.2971C20.3283 75.7816 20.1135 75.1801 20.0598 74.4928H22.4764C22.5301 74.9546 22.7127 75.3413 23.0241 75.6527C23.3464 75.9534 23.7706 76.1038 24.2969 76.1038C24.7694 76.1038 25.1292 75.9803 25.3763 75.7333C25.634 75.4755 25.7629 75.1479 25.7629 74.7505C25.7629 74.3961 25.6609 74.1061 25.4568 73.8806C25.2528 73.6443 24.995 73.4563 24.6835 73.3167C24.372 73.1771 23.9424 73.016 23.3947 72.8334C22.6858 72.5971 22.1058 72.3662 21.6548 72.1406C21.2037 71.9044 20.817 71.566 20.4948 71.1257C20.1833 70.6853 20.0276 70.1107 20.0276 69.4019C20.0276 68.4245 20.3767 67.6566 21.0748 67.0981C21.7836 66.5288 22.718 66.2442 23.878 66.2442C25.0809 66.2442 26.0368 66.5342 26.7457 67.1142C27.4653 67.6942 27.8734 68.4675 27.97 69.4341H25.5213C25.4568 69.026 25.285 68.693 25.0057 68.4352C24.7265 68.1667 24.3452 68.0325 23.8619 68.0325C23.443 68.0325 23.1047 68.1453 22.8469 68.3708C22.5892 68.5856 22.4603 68.9024 22.4603 69.3213C22.4603 69.6543 22.5569 69.9335 22.7503 70.1591C22.9543 70.3739 23.2067 70.5511 23.5075 70.6907C23.8189 70.8303 24.2378 70.9861 24.7641 71.1579C25.4944 71.4157 26.0851 71.6573 26.5362 71.8829C26.998 72.1084 27.3901 72.4467 27.7123 72.8978C28.0345 73.3489 28.1956 73.9396 28.1956 74.67ZM33.8804 68.7413C35.0296 68.7413 35.9855 69.0528 36.7481 69.6758C37.5214 70.2987 38.0047 71.1472 38.198 72.2212H35.7976C35.7009 71.7486 35.4807 71.3781 35.137 71.1096C34.7934 70.8303 34.3584 70.6907 33.8321 70.6907C33.2306 70.6907 32.7259 70.9163 32.3177 71.3673C31.9203 71.8077 31.7216 72.4575 31.7216 73.3167C31.7216 74.1759 31.9203 74.8311 32.3177 75.2822C32.7259 75.7225 33.2306 75.9427 33.8321 75.9427C34.3584 75.9427 34.7934 75.8085 35.137 75.5399C35.4807 75.2607 35.7009 74.8848 35.7976 74.4122H38.198C38.0047 75.4862 37.5214 76.3347 36.7481 76.9577C35.9855 77.5806 35.0296 77.8921 33.8804 77.8921C33.0105 77.8921 32.2372 77.7095 31.5605 77.3443C30.8839 76.9684 30.3576 76.4368 29.9817 75.7494C29.6058 75.062 29.4178 74.2511 29.4178 73.3167C29.4178 72.3823 29.6058 71.5714 29.9817 70.884C30.3576 70.1859 30.8839 69.6543 31.5605 69.2891C32.2372 68.9239 33.0105 68.7413 33.8804 68.7413ZM45.1285 68.7252C46.1596 68.7252 46.9812 69.0636 47.5934 69.7402C48.2056 70.4168 48.5117 71.3673 48.5117 72.5917V77.7793H46.2563V72.8495C46.2563 72.1406 46.0737 71.5929 45.7085 71.2062C45.3433 70.8089 44.8439 70.6102 44.2102 70.6102C43.5658 70.6102 43.0503 70.8196 42.6636 71.2385C42.277 71.6573 42.0837 72.2588 42.0837 73.0428V77.7793H39.8121V65.8576H42.0837V70.6424C42.3199 70.0409 42.7066 69.5737 43.2436 69.2408C43.7914 68.8971 44.4197 68.7252 45.1285 68.7252ZM54.6347 68.7413C55.5047 68.7413 56.2833 68.9239 56.9707 69.2891C57.6688 69.6543 58.2166 70.1859 58.614 70.884C59.0114 71.5714 59.2101 72.3823 59.2101 73.3167C59.2101 74.2511 59.0114 75.062 58.614 75.7494C58.2166 76.4368 57.6688 76.9684 56.9707 77.3443C56.2833 77.7095 55.5047 77.8921 54.6347 77.8921C53.7647 77.8921 52.9807 77.7095 52.2826 77.3443C51.5952 76.9684 51.0528 76.4368 50.6554 75.7494C50.258 75.062 50.0593 74.2511 50.0593 73.3167C50.0593 72.3823 50.258 71.5714 50.6554 70.884C51.0528 70.1859 51.5952 69.6543 52.2826 69.2891C52.9807 68.9239 53.7647 68.7413 54.6347 68.7413ZM54.6347 70.7068C54.001 70.7068 53.464 70.9324 53.0236 71.3835C52.5833 71.8238 52.3631 72.4682 52.3631 73.3167C52.3631 74.1652 52.5833 74.815 53.0236 75.2661C53.464 75.7064 54.001 75.9266 54.6347 75.9266C55.2684 75.9266 55.8054 75.7064 56.2457 75.2661C56.6861 74.815 56.9063 74.1652 56.9063 73.3167C56.9063 72.4682 56.6861 71.8238 56.2457 71.3835C55.8054 70.9324 55.2684 70.7068 54.6347 70.7068ZM64.9397 68.7413C65.8097 68.7413 66.5883 68.9239 67.2757 69.2891C67.9738 69.6543 68.5216 70.1859 68.919 70.884C69.3164 71.5714 69.5151 72.3823 69.5151 73.3167C69.5151 74.2511 69.3164 75.062 68.919 75.7494C68.5216 76.4368 67.9738 76.9684 67.2757 77.3443C66.5883 77.7095 65.8097 77.8921 64.9397 77.8921C64.0697 77.8921 63.2857 77.7095 62.5876 77.3443C61.9002 76.9684 61.3578 76.4368 60.9604 75.7494C60.563 75.062 60.3643 74.2511 60.3643 73.3167C60.3643 72.3823 60.563 71.5714 60.9604 70.884C61.3578 70.1859 61.9002 69.6543 62.5876 69.2891C63.2857 68.9239 64.0697 68.7413 64.9397 68.7413ZM64.9397 70.7068C64.306 70.7068 63.769 70.9324 63.3287 71.3835C62.8883 71.8238 62.6681 72.4682 62.6681 73.3167C62.6681 74.1652 62.8883 74.815 63.3287 75.2661C63.769 75.7064 64.306 75.9266 64.9397 75.9266C65.5734 75.9266 66.1104 75.7064 66.5507 75.2661C66.9911 74.815 67.2113 74.1652 67.2113 73.3167C67.2113 72.4682 66.9911 71.8238 66.5507 71.3835C66.1104 70.9324 65.5734 70.7068 64.9397 70.7068ZM73.392 65.8576V77.7793H71.1204V65.8576H73.392Z" fill="#4F4F4F"/>
<defs>
<clipPath id="clip0_27_73">
<rect width="9.91411" height="9.91411" fill="white" transform="translate(31 48.626)"/>
</clipPath>
</defs>
</svg>
