<svg width="95" height="92" viewBox="0 0 95 92" fill="none" xmlns="http://www.w3.org/2000/svg">
<rect x="0.619632" y="0.619632" width="92.9448" height="90.4663" rx="6.81595" fill="#F3F7FF" stroke="#9CB0D9" stroke-width="1.23926"/>
<path d="M16.5464 60.8014V58.6749H20.6384V70.0488H18.2541V60.8014H16.5464ZM24.1356 68.5828C24.3934 69.1628 24.5223 69.7481 24.5223 70.3388C24.5223 71.0047 24.3451 71.5525 23.9906 71.9821C23.6469 72.4117 23.1099 72.6265 22.3796 72.6265V71.7565C22.6588 71.7565 22.8629 71.6867 22.9918 71.5471C23.1207 71.4182 23.1851 71.1819 23.1851 70.8382V70.6771H22.154V68.5828H24.1356ZM29.9655 58.2399C30.7388 58.2399 31.3993 58.3741 31.947 58.6426C32.5055 58.9112 32.9244 59.2817 33.2037 59.7543C33.4936 60.2268 33.6386 60.7531 33.6386 61.3331C33.6386 62.0634 33.4399 62.6649 33.0426 63.1375C32.6452 63.5993 32.1189 63.8839 31.4637 63.9913V64.0719C33.0533 64.5444 33.8481 65.4788 33.8481 66.8751C33.8481 67.8524 33.5205 68.6472 32.8653 69.2594C32.2102 69.8609 31.2865 70.1616 30.0943 70.1616C28.827 70.1616 27.8174 69.8501 27.0656 69.2272C26.3138 68.5935 25.8949 67.643 25.809 66.3756H28.0322C28.0859 66.9556 28.2739 67.4175 28.5961 67.7611C28.929 68.0941 29.3962 68.2606 29.9977 68.2606C30.5132 68.2606 30.916 68.1209 31.206 67.8417C31.4959 67.5517 31.6409 67.1758 31.6409 66.714C31.6409 66.1662 31.4315 65.7473 31.0126 65.4574C30.5938 65.1674 29.9762 65.0224 29.1599 65.0224H28.6927V63.1697H29.1599C30.6636 63.1912 31.4154 62.6703 31.4154 61.607C31.4154 61.1451 31.2811 60.7853 31.0126 60.5276C30.7441 60.2591 30.379 60.1248 29.9171 60.1248C29.4338 60.1248 29.0364 60.2805 28.725 60.592C28.4135 60.8927 28.2363 61.317 28.1933 61.8647H25.9701C26.0345 60.7048 26.4104 59.8133 27.0978 59.1904C27.7852 58.5567 28.7411 58.2399 29.9655 58.2399ZM35.3565 68.2606C38.9975 65.7366 40.818 63.6422 40.818 61.9775C40.818 61.4727 40.6945 61.0753 40.4474 60.7853C40.2111 60.4953 39.8352 60.3503 39.3197 60.3503C38.2564 60.3503 37.6925 61.0753 37.6281 62.5253H35.421C35.4854 61.1827 35.8936 60.1678 36.6454 59.4804C37.3972 58.7823 38.3477 58.4332 39.4969 58.4332C40.6676 58.4332 41.5644 58.7393 42.1874 59.3515C42.821 59.953 43.1379 60.7585 43.1379 61.7681C43.1379 62.5628 42.9016 63.363 42.429 64.1685C41.9672 64.9633 41.3765 65.699 40.6569 66.3756C39.9373 67.0415 39.1801 67.6162 38.3853 68.0995H43.3634V69.9522H35.3565V68.2606ZM44.0788 60.8014V58.6749H48.1709V70.0488H45.7865V60.8014H44.0788ZM56.8198 61.0109C57.9046 61.0109 58.7745 61.2848 59.4297 61.8325C60.0848 62.3803 60.493 63.1106 60.6541 64.0235H58.5275C58.4416 63.5939 58.2482 63.2502 57.9475 62.9925C57.6468 62.7347 57.2548 62.6058 56.7715 62.6058C56.3848 62.6058 56.0841 62.6971 55.8693 62.8797C55.6545 63.0623 55.5471 63.3093 55.5471 63.6208C55.5471 63.8678 55.633 64.0665 55.8048 64.2169C55.9767 64.3672 56.1915 64.4854 56.4492 64.5713C56.707 64.6572 57.0776 64.7592 57.5609 64.8774C58.2375 65.0277 58.7853 65.1888 59.2041 65.3607C59.6337 65.5218 59.9989 65.7849 60.2996 66.1501C60.6111 66.5045 60.7668 66.9878 60.7668 67.6C60.7668 68.3626 60.4661 68.9802 59.8647 69.4527C59.2739 69.9253 58.4738 70.1616 57.4642 70.1616C56.3043 70.1616 55.3752 69.9038 54.6771 69.3883C53.979 68.862 53.5547 68.1156 53.4044 67.149H55.5793C55.633 67.5893 55.8263 67.9384 56.1593 68.1961C56.4922 68.4432 56.9272 68.5667 57.4642 68.5667C57.8509 68.5667 58.1462 68.4754 58.3503 68.2928C58.5543 68.0995 58.6564 67.8524 58.6564 67.5517C58.6564 67.2939 58.5651 67.0845 58.3825 66.9234C58.2107 66.7623 57.9905 66.6388 57.722 66.5529C57.4642 66.4669 57.0937 66.3649 56.6103 66.2468C55.9445 66.0964 55.4021 65.946 54.9832 65.7957C54.5751 65.6346 54.2206 65.3822 53.9199 65.0385C53.6299 64.6948 53.4849 64.2222 53.4849 63.6208C53.4849 62.8475 53.7803 62.2192 54.371 61.7358C54.9617 61.2525 55.778 61.0109 56.8198 61.0109ZM66.1157 61.027C66.8031 61.027 67.3938 61.1774 67.8879 61.4781C68.3819 61.7681 68.7632 62.1816 69.0317 62.7186V61.1236H71.2872V74.302H69.0317V68.325C68.7417 68.905 68.3497 69.3561 67.8557 69.6783C67.3724 69.9898 66.7924 70.1455 66.1157 70.1455C65.3532 70.1455 64.6604 69.9575 64.0375 69.5816C63.4146 69.2057 62.9205 68.6741 62.5553 67.9867C62.1902 67.2993 62.0076 66.5099 62.0076 65.6185C62.0076 64.7163 62.1902 63.9215 62.5553 63.2341C62.9205 62.536 63.4146 61.9936 64.0375 61.607C64.6604 61.2203 65.3532 61.027 66.1157 61.027ZM66.6635 63.0086C65.9869 63.0086 65.423 63.2395 64.9719 63.7013C64.5316 64.1524 64.3114 64.7915 64.3114 65.6185C64.3114 66.4455 64.5316 67.0791 64.9719 67.5195C65.423 67.9491 65.9869 68.1639 66.6635 68.1639C67.0824 68.1639 67.4744 68.0672 67.8396 67.8739C68.2047 67.6699 68.4947 67.3745 68.7095 66.9878C68.9243 66.6012 69.0317 66.134 69.0317 65.5862C69.0317 65.0385 68.9243 64.5713 68.7095 64.1846C68.4947 63.798 68.2047 63.508 67.8396 63.3147C67.4851 63.1106 67.0931 63.0086 66.6635 63.0086ZM77.7601 59.577C77.0942 59.5341 76.627 59.6307 76.3585 59.867C76.09 60.1033 75.9557 60.5168 75.9557 61.1075V61.1236H77.7601V63.0408H75.9557V70.0488H73.6841V63.0408H72.5403V61.1236H73.6841V60.9142C73.6841 59.8509 73.9849 59.0347 74.5863 58.4654C75.1985 57.8855 76.1007 57.5955 77.2929 57.5955C77.4969 57.5955 77.6527 57.6008 77.7601 57.6116V59.577Z" fill="#4F4F4F"/>
<path d="M55.8282 23.5459H38.4785C37.1153 23.5459 36 24.6612 36 26.0244V38.4171C36 39.7803 37.1153 40.8956 38.4785 40.8956H55.8282C57.1914 40.8956 58.3068 39.7803 58.3068 38.4171V26.0244C58.3068 24.6612 57.1914 23.5459 55.8282 23.5459ZM55.8282 38.4171H38.4785V26.0244H55.8282V38.4171Z" fill="#404A5E"/>
</svg>
