<svg width="35" height="34" viewBox="0 0 35 34" fill="none" xmlns="http://www.w3.org/2000/svg">
<circle cx="17.0435" cy="17" r="17" fill="#272C37"/>
<g clip-path="url(#clip0_27_137)">
<path d="M24.3212 11.3953C24.1865 11.2646 24.0065 11.1925 23.8199 11.1944C23.6332 11.1963 23.4547 11.2721 23.3227 11.4056C23.1907 11.5391 23.1157 11.7195 23.1138 11.9083C23.1119 12.097 23.1833 12.279 23.3126 12.4151C26.0978 15.2316 26.0978 19.7981 23.3126 22.6142C23.1833 22.7504 23.1119 22.9323 23.1138 23.1211C23.1157 23.3098 23.1907 23.4903 23.3227 23.6238C23.4547 23.7572 23.6332 23.8331 23.8199 23.835C24.0065 23.8369 24.1865 23.7647 24.3212 23.634C27.6645 20.2536 27.6645 14.7751 24.3212 11.3947V11.3953Z" fill="white"/>
<path d="M22.3027 13.4357C22.2365 13.3688 22.1578 13.3157 22.0713 13.2794C21.9848 13.2432 21.8921 13.2246 21.7984 13.2246C21.7048 13.2246 21.6121 13.2433 21.5255 13.2795C21.439 13.3158 21.3604 13.3689 21.2942 13.4359C21.228 13.5028 21.1755 13.5823 21.1397 13.6698C21.1039 13.7573 21.0854 13.851 21.0854 13.9457C21.0855 14.0404 21.1039 14.1342 21.1398 14.2216C21.1756 14.3091 21.2282 14.3886 21.2944 14.4555C22.0969 15.267 22.5477 16.3676 22.5477 17.5151C22.5477 18.6626 22.0969 19.7632 21.2944 20.5747C21.1606 20.7099 21.0855 20.8933 21.0855 21.0845C21.0854 21.2757 21.1605 21.4591 21.2942 21.5943C21.4279 21.7296 21.6093 21.8056 21.7984 21.8056C21.9875 21.8056 22.1689 21.7297 22.3027 21.5945C23.3728 20.5124 23.974 19.0448 23.974 17.5146C23.974 15.9844 23.3728 14.5168 22.3027 13.4347V13.4357Z" fill="white"/>
<path d="M20.2875 15.4756C20.1533 15.3431 19.9728 15.2694 19.7852 15.2705C19.5975 15.2717 19.4179 15.3475 19.2852 15.4817C19.1525 15.6158 19.0775 15.7974 19.0764 15.9871C19.0753 16.1768 19.1482 16.3594 19.2793 16.4951C19.5466 16.7657 19.6968 17.1325 19.6968 17.5149C19.6968 17.8974 19.5466 18.2642 19.2793 18.5347C19.1455 18.6699 19.0703 18.8533 19.0703 19.0445C19.0703 19.2357 19.1454 19.4191 19.2791 19.5544C19.4128 19.6896 19.5942 19.7656 19.7833 19.7656C19.9724 19.7656 20.1538 19.6897 20.2875 19.5545C20.8226 19.0135 21.1232 18.2797 21.1232 17.5146C21.1232 16.7495 20.8226 16.0157 20.2875 15.4746V15.4756Z" fill="white"/>
<path d="M11.1351 14.6303H8.28174V20.4001L11.1351 20.3997L16.8416 24.727H18.268V10.3027L16.8413 10.3031L11.1348 14.6303H11.1351Z" fill="white"/>
</g>
<defs>
<clipPath id="clip0_27_137">
<rect width="18.5455" height="14.4242" fill="white" transform="translate(8.28174 10.3027)"/>
</clipPath>
</defs>
</svg>
