<svg width="20" height="20" viewBox="0 0 20 20" fill="none" xmlns="http://www.w3.org/2000/svg">
<circle cx="10.0727" cy="10.3554" r="9.39152" fill="#272C37"/>
<g clip-path="url(#clip0_27_335)">
<path d="M14.0933 7.25898C14.0189 7.18676 13.9195 7.14691 13.8163 7.14797C13.7132 7.14903 13.6146 7.19092 13.5417 7.26466C13.4688 7.33839 13.4273 7.43809 13.4263 7.54236C13.4252 7.64662 13.4647 7.74715 13.5361 7.82237C15.0748 9.37829 15.0748 11.901 13.5361 13.4568C13.4647 13.532 13.4252 13.6325 13.4263 13.7368C13.4273 13.8411 13.4688 13.9408 13.5417 14.0145C13.6146 14.0882 13.7132 14.1301 13.8163 14.1312C13.9195 14.1322 14.0189 14.0924 14.0933 14.0202C15.9403 12.1527 15.9403 9.12609 14.0933 7.25862V7.25898Z" fill="white"/>
<path d="M12.981 8.38566C12.9445 8.34868 12.901 8.31935 12.8532 8.29934C12.8054 8.27933 12.7542 8.26903 12.7025 8.26904C12.6507 8.26905 12.5995 8.27936 12.5517 8.29939C12.5039 8.31941 12.4605 8.34876 12.4239 8.38575C12.3874 8.42274 12.3583 8.46666 12.3386 8.51499C12.3188 8.56331 12.3086 8.61511 12.3086 8.66742C12.3086 8.71973 12.3188 8.77152 12.3386 8.81984C12.3584 8.86816 12.3874 8.91207 12.424 8.94905C12.8673 9.39735 13.1164 10.0053 13.1164 10.6393C13.1164 11.2732 12.8673 11.8812 12.424 12.3295C12.3501 12.4042 12.3086 12.5055 12.3086 12.6112C12.3086 12.7168 12.3501 12.8181 12.4239 12.8928C12.4978 12.9675 12.598 13.0095 12.7025 13.0095C12.8069 13.0096 12.9072 12.9676 12.981 12.8929C13.5722 12.2951 13.9043 11.4844 13.9043 10.639C13.9043 9.79365 13.5722 8.9829 12.981 8.38511V8.38566Z" fill="white"/>
<path d="M11.8643 9.51224C11.7902 9.43902 11.6905 9.39831 11.5868 9.39893C11.4832 9.39956 11.3839 9.44146 11.3106 9.51557C11.2373 9.58968 11.1959 9.69002 11.1953 9.79482C11.1946 9.89963 11.2349 10.0005 11.3073 10.0754C11.455 10.2249 11.538 10.4275 11.538 10.6388C11.538 10.8501 11.455 11.0527 11.3073 11.2022C11.2334 11.2769 11.1919 11.3782 11.1919 11.4838C11.1919 11.5895 11.2334 11.6908 11.3072 11.7655C11.3811 11.8402 11.4813 11.8822 11.5858 11.8822C11.6902 11.8822 11.7905 11.8403 11.8643 11.7656C12.1599 11.4667 12.326 11.0613 12.326 10.6386C12.326 10.216 12.1599 9.81058 11.8643 9.51169V9.51224Z" fill="white"/>
<path d="M6.80632 9.0465H5.22998V12.234L6.80632 12.2338L9.95882 14.6243H10.7468V6.65576L9.95864 6.65595L6.80614 9.0465H6.80632Z" fill="white"/>
</g>
<defs>
<clipPath id="clip0_27_335">
<rect width="10.2453" height="7.96856" fill="white" transform="translate(5.23096 6.65576)"/>
</clipPath>
</defs>
</svg>
