<svg width="32" height="29" viewBox="0 0 32 29" fill="none" xmlns="http://www.w3.org/2000/svg">
<path d="M19.1172 22.6226L16.4064 16.6953C16.2579 16.3705 15.9335 16.1621 15.5763 16.1621C15.2191 16.1621 14.8948 16.3705 14.7462 16.6953L12.0354 22.6225C10.8612 25.1897 12.7375 28.1131 15.5595 28.1131H15.5931C18.416 28.1131 20.291 25.1887 19.1172 22.6226ZM15.5931 26.2876H15.5594C14.0616 26.2876 13.0729 24.7431 13.6954 23.3818L15.5763 19.2695L17.4571 23.3818V23.3818C18.0799 24.7438 17.0899 26.2876 15.5931 26.2876Z" fill="#4F4F4F"/>
<path d="M28.4174 5.47659H20.7502V4.56382C20.7502 4.05973 20.3415 3.65106 19.8374 3.65106H16.4906V1.82553H20.1417C20.6458 1.82553 21.0544 1.41685 21.0544 0.912765C21.0544 0.408675 20.6458 0 20.1417 0H11.014C10.5099 0 10.1013 0.408675 10.1013 0.912765C10.1013 1.41685 10.5099 1.82553 11.014 1.82553H14.6651V3.65106H11.3183C10.8142 3.65106 10.4055 4.05973 10.4055 4.56382V5.47659H1.82553V4.56382C1.82553 4.05973 1.41685 3.65106 0.912765 3.65106C0.408675 3.65106 0 4.05973 0 4.56382C0 5.61594 0 12.2498 0 13.083C0 13.5871 0.408675 13.9957 0.912765 13.9957C1.41685 13.9957 1.82553 13.5871 1.82553 13.083V12.1702H10.4055V13.083C10.4055 13.5871 10.8142 13.9957 11.3183 13.9957H19.8374C20.3415 13.9957 20.7502 13.5871 20.7502 13.083V12.1702H24.4621V14.9085C24.4621 15.4126 24.8708 15.8213 25.3749 15.8213H30.2429C30.747 15.8213 31.1557 15.4126 31.1557 14.9085V8.21488C31.1557 6.70499 29.9273 5.47659 28.4174 5.47659ZM10.4055 10.3447H1.82553V7.30212H10.4055V10.3447ZM18.9247 12.1702H12.231C12.231 11.4148 12.231 6.35266 12.231 5.47659H18.9247C18.9247 6.35065 18.9247 11.4083 18.9247 12.1702ZM29.3302 13.9957H26.2876V11.2574C26.2876 10.7533 25.879 10.3447 25.3749 10.3447H20.7502V7.30212H28.4174C28.9207 7.30212 29.3302 7.71158 29.3302 8.21488V13.9957Z" fill="#4F4F4F"/>
</svg>
